<svg width="207" height="63" viewBox="0 0 207 63" fill="none" xmlns="http://www.w3.org/2000/svg">
<mask id="path-1-outside-1_187_118" maskUnits="userSpaceOnUse" x="0" y="-0.290649" width="207" height="63" fill="black">
<rect fill="white" y="-0.290649" width="207" height="63"/>
<path d="M28.912 17.8774L28.752 19.7974C28.2613 19.7547 27.728 19.7334 27.152 19.7334C26.5973 19.7334 26.128 19.744 25.744 19.7654C25.4453 22.112 25.2533 24.6614 25.168 27.4134H22.928C22.8 26.8587 22.736 26.1227 22.736 25.2054C22.736 24.288 22.7573 23.4987 22.8 22.8374C22.864 22.1547 22.9387 21.4827 23.024 20.8214C23.1093 20.16 23.152 19.776 23.152 19.6693C22.8533 19.648 22.1493 19.6374 21.04 19.6374C19.9307 19.6374 19.1627 19.6587 18.736 19.7014C16.2613 23.0294 13.9787 25.5574 11.888 27.2854C9.79733 28.992 7.70667 29.8454 5.616 29.8454C4.592 29.8454 3.73867 29.536 3.056 28.9174C2.352 28.2987 2 27.4774 2 26.4534C2 24.512 3.472 22.7413 6.416 21.1413C9.38133 19.5413 13.2107 18.464 17.904 17.9094C18.4587 17.056 19.4933 15.744 21.008 13.9734C22.5227 12.1814 24.016 10.624 25.488 9.30135C26.128 7.80802 26.6293 6.77335 26.992 6.19735C27.376 5.60002 27.7493 5.30135 28.112 5.30135C28.4747 5.30135 28.7733 5.44002 29.008 5.71735C29.2427 5.99468 29.36 6.35735 29.36 6.80535C29.36 7.23202 29.1147 7.87202 28.624 8.72535C28.1547 9.55735 27.664 10.8587 27.152 12.6294C26.64 14.3787 26.288 16.032 26.096 17.5894C27.2053 17.5894 28.144 17.6854 28.912 17.8774ZM12.592 24.5654C14.3627 22.88 15.696 21.28 16.592 19.7654C13.008 19.9787 10.2347 20.6507 8.272 21.7814C6.33067 22.912 5.36 24.1174 5.36 25.3974C5.36 25.952 5.54133 26.3894 5.904 26.7094C6.288 27.0294 6.78933 27.1894 7.408 27.1894C9.072 27.1894 10.8 26.3147 12.592 24.5654ZM23.536 17.5894C23.6853 16.864 23.8773 15.9574 24.112 14.8694C24.368 13.76 24.5173 13.1094 24.56 12.9174C23.536 13.8987 22.8213 14.624 22.416 15.0934C22.0107 15.5414 21.296 16.416 20.272 17.7174C20.6347 17.696 21.072 17.6854 21.584 17.6854C22.1173 17.664 22.5547 17.6427 22.896 17.6214C23.2373 17.6 23.4507 17.5894 23.536 17.5894Z"/>
<path d="M35.6333 24.3414L36.3053 24.8854C35.5799 26.016 34.9506 26.8374 34.4173 27.3494C33.9053 27.84 33.3293 28.0854 32.6893 28.0854C32.0493 28.0854 31.5266 27.8294 31.1213 27.3174C30.7159 26.8054 30.5133 26.1654 30.5133 25.3974C30.5133 23.904 31.4946 20.6934 33.4573 15.7654C35.4199 10.816 37.4359 6.46402 39.5052 2.70935L40.9132 3.47735C38.8226 7.53068 36.9346 11.5627 35.2493 15.5734C33.5639 19.5627 32.7213 22.432 32.7213 24.1814C32.7213 25.184 33.0946 25.6854 33.8413 25.6854C34.4386 25.6854 35.0359 25.2374 35.6333 24.3414Z"/>
<path d="M46.8167 23.8294L47.5208 24.6294C46.9874 25.4614 46.3368 26.112 45.5688 26.5814C44.8221 27.0507 44.0647 27.2854 43.2967 27.2854C42.5287 27.2854 41.9208 27.072 41.4728 26.6454C41.0248 26.1974 40.8008 25.5894 40.8008 24.8214C40.8008 23.0293 41.4727 20.5547 42.8167 17.3974C41.7287 17.568 40.6407 17.824 39.5527 18.1654L39.3288 16.9174L39.2967 16.8854C40.3634 16.4374 41.7608 16.0747 43.4888 15.7974C43.6594 15.4774 44.0434 14.6987 44.6408 13.4614C45.8354 11.008 46.6888 9.41868 47.2008 8.69335L48.5768 9.23735C48.3634 9.70668 47.9901 10.496 47.4567 11.6054C46.9234 12.6934 46.3261 13.9307 45.6647 15.3174C46.6247 15.2534 47.3821 15.2214 47.9368 15.2214C48.4914 15.2214 48.9181 15.3067 49.2168 15.4774V16.8534C48.9181 16.7894 48.4808 16.7574 47.9048 16.7574C47.3501 16.7574 46.3474 16.8534 44.8968 17.0454C43.6381 19.8614 43.0088 21.9094 43.0088 23.1894C43.0088 23.68 43.1581 24.0854 43.4567 24.4054C43.7767 24.7254 44.1928 24.8854 44.7048 24.8854C45.2381 24.8854 45.9421 24.5334 46.8167 23.8294Z"/>
<path d="M60.3553 15.9574L61.4433 16.8214C58.6059 20.5547 56.6859 23.6694 55.6833 26.1654C55.3419 26.9974 54.8513 27.4134 54.2113 27.4134C53.8059 27.4134 53.4432 27.2 53.1232 26.7734C52.8246 26.3467 52.6219 25.9627 52.5153 25.6214C52.4299 25.2587 52.2806 24.512 52.0672 23.3814C51.8539 22.2507 51.6193 21.0774 51.3633 19.8614C51.1073 18.624 50.8939 17.7067 50.7233 17.1094C50.5739 16.4907 50.4673 16.0854 50.4033 15.8934C50.3606 15.7014 50.2753 15.5414 50.1473 15.4134C50.0193 15.264 49.9446 15.168 49.9233 15.1254L52.0033 15.3174C52.6219 16.832 53.1126 18.4747 53.4753 20.2453C53.5606 20.608 53.7099 21.344 53.9233 22.4534C54.1366 23.5414 54.3072 24.3947 54.4352 25.0134C55.6086 22.752 56.6326 20.9173 57.5073 19.5093C58.4033 18.08 59.3526 16.896 60.3553 15.9574Z"/>
<path d="M71.0075 23.6374L71.7435 24.2134C71.0822 25.1307 70.1755 25.8987 69.0235 26.5174C67.8715 27.1147 66.7515 27.4134 65.6635 27.4134C64.5755 27.4134 63.7008 27.0934 63.0395 26.4534C62.3782 25.8134 62.0475 24.9707 62.0475 23.9254C62.0475 21.9627 63.0822 20.032 65.1515 18.1334C67.2422 16.2347 69.3542 15.2854 71.4875 15.2854C72.8955 15.2854 73.5995 15.84 73.5995 16.9494C73.5995 18.1014 72.8528 19.264 71.3595 20.4374C69.8875 21.6107 67.8075 22.6774 65.1195 23.6374C65.3115 24.128 65.6102 24.512 66.0155 24.7894C66.4208 25.0667 66.8368 25.2054 67.2635 25.2054C68.1808 25.2054 69.4288 24.6827 71.0075 23.6374ZM64.9595 22.6774C66.6875 22.08 68.1702 21.3334 69.4075 20.4374C70.6448 19.5414 71.2635 18.72 71.2635 17.9734C71.2635 17.696 71.1568 17.4507 70.9435 17.2374C70.7302 17.024 70.4848 16.9174 70.2075 16.9174C69.2048 16.9174 68.1168 17.5467 66.9435 18.8054C65.7915 20.0427 65.1302 21.3334 64.9595 22.6774Z"/>
<path d="M83.195 16.0854C83.7283 16.0854 84.1657 16.2667 84.507 16.6294C84.8483 16.992 85.019 17.4614 85.019 18.0374C85.019 19.1894 84.3577 20.4054 83.035 21.6854L82.267 21.0774C82.5657 20.416 82.715 19.936 82.715 19.6374C82.715 19.0614 82.395 18.7733 81.755 18.7733C81.115 18.7733 80.507 19.1787 79.931 19.9894C79.355 20.8 78.6723 22.0587 77.883 23.7654C77.115 25.4507 76.5283 26.6454 76.123 27.3494L74.299 26.5494C75.4723 23.8827 76.1443 22.3147 76.315 21.8454C76.891 20.1814 77.179 18.0694 77.179 15.5094L78.971 15.0294C78.907 16.416 78.811 17.4934 78.683 18.2614C78.555 19.008 78.2457 20.2347 77.755 21.9414C79.9097 18.0374 81.723 16.0854 83.195 16.0854Z"/>
<path d="M96.074 14.9014L95.786 16.1494C95.4233 16.1067 94.954 16.0854 94.378 16.0854C92.2447 16.0854 91.178 16.7894 91.178 18.1974C91.178 18.496 91.6047 19.3707 92.458 20.8214C93.3327 22.272 93.77 23.2427 93.77 23.7334C93.77 24.8854 93.3753 25.792 92.586 26.4534C91.818 27.0934 90.7833 27.4134 89.482 27.4134C87.69 27.4134 86.25 26.4214 85.162 24.4374L86.378 23.5734C86.6767 23.808 86.9967 24.096 87.338 24.4374C87.6793 24.7574 87.9353 24.9814 88.106 25.1094C88.5113 25.472 88.9593 25.6534 89.45 25.6534C89.9407 25.6534 90.3673 25.4827 90.73 25.1414C91.0927 24.7787 91.274 24.3414 91.274 23.8294C91.274 23.296 90.8047 22.3147 89.866 20.8854C88.9487 19.456 88.49 18.4534 88.49 17.8774C88.49 16.832 88.9273 16.032 89.802 15.4774C90.698 14.9227 91.8607 14.6454 93.29 14.6454C94.7407 14.6454 95.6687 14.7307 96.074 14.9014Z"/>
<path d="M105.164 23.6374L105.9 24.2134C105.238 25.1307 104.332 25.8987 103.18 26.5174C102.028 27.1147 100.908 27.4134 99.8197 27.4134C98.7317 27.4134 97.8571 27.0934 97.1957 26.4534C96.5344 25.8134 96.2038 24.9707 96.2038 23.9254C96.2038 21.9627 97.2384 20.032 99.3077 18.1334C101.398 16.2347 103.51 15.2854 105.644 15.2854C107.052 15.2854 107.756 15.84 107.756 16.9494C107.756 18.1014 107.009 19.264 105.516 20.4374C104.044 21.6107 101.964 22.6774 99.2757 23.6374C99.4677 24.128 99.7664 24.512 100.172 24.7894C100.577 25.0667 100.993 25.2054 101.42 25.2054C102.337 25.2054 103.585 24.6827 105.164 23.6374ZM99.1158 22.6774C100.844 22.08 102.326 21.3334 103.564 20.4374C104.801 19.5414 105.42 18.72 105.42 17.9734C105.42 17.696 105.313 17.4507 105.1 17.2374C104.886 17.024 104.641 16.9174 104.364 16.9174C103.361 16.9174 102.273 17.5467 101.1 18.8054C99.9477 20.0427 99.2864 21.3334 99.1158 22.6774Z"/>
<path d="M145.078 7.86135L146.934 8.08535C146.55 9.74935 146.028 11.7014 145.366 13.9413C144.726 16.16 144.14 17.9627 143.606 19.3493C143.073 20.7147 142.486 22.08 141.846 23.4454C141.228 24.7894 140.566 25.856 139.862 26.6454C139.158 27.4134 138.476 27.7974 137.814 27.7974C137.153 27.7974 136.662 27.552 136.342 27.0614C136.044 26.5707 135.894 25.7067 135.894 24.4694C135.894 23.2107 136.076 20.5867 136.438 16.5974C136.801 12.5867 136.982 10.4107 136.982 10.0693C137.004 9.70668 136.918 9.52535 136.726 9.52535C136.492 9.52535 136.214 9.85602 135.894 10.5174C135.574 11.1574 135.329 11.648 135.158 11.9894C134.71 12.992 134.422 13.696 134.294 14.1014C133.1 16.7894 132.033 19.008 131.094 20.7574C130.156 22.5067 129.078 24.128 127.862 25.6214C127.436 26.1334 126.828 26.656 126.038 27.1894C125.249 27.7227 124.513 28.128 123.83 28.4054L123.126 26.5174C124.897 25.7707 126.497 24.48 127.926 22.6454C129.356 20.7894 130.828 18.208 132.342 14.9014C133.878 11.5947 134.977 9.36535 135.638 8.21335C136.385 6.99735 137.142 6.38935 137.91 6.38935C138.401 6.38935 138.785 6.56002 139.062 6.90135C139.34 7.24268 139.478 7.69068 139.478 8.24535C139.478 8.77868 139.286 11.0187 138.902 14.9654C138.54 18.912 138.358 21.44 138.358 22.5494C138.358 23.6587 138.401 24.384 138.486 24.7254C138.593 25.0454 138.764 25.2054 138.998 25.2054C139.297 25.2054 139.617 24.8853 139.958 24.2453C141.132 21.9627 142.838 16.5014 145.078 7.86135Z"/>
<path d="M160.65 24.1814L161.387 24.7254C161.088 25.3654 160.533 25.9734 159.723 26.5494C158.933 27.1254 158.208 27.4134 157.546 27.4134C156.288 27.4134 155.659 26.752 155.659 25.4294C155.659 24.8107 155.819 24.0747 156.139 23.2214L154.954 24.4374C153.802 25.6107 152.8 26.4 151.947 26.8054C151.115 27.2107 150.293 27.4134 149.482 27.4134C148.672 27.4134 148.053 27.1894 147.626 26.7414C147.221 26.272 147.018 25.632 147.018 24.8214C147.018 23.328 147.595 21.856 148.747 20.4053C149.899 18.9333 151.371 17.7387 153.163 16.8214C154.955 15.904 156.746 15.4347 158.538 15.4134L158.603 16.4694L157.258 16.7574C155.317 17.184 153.6 18.0374 152.107 19.3174C150.635 20.5974 149.898 21.8774 149.898 23.1574C149.898 24.416 150.41 25.0454 151.434 25.0454C152.394 25.0454 153.578 24.3734 154.986 23.0294C156.394 21.6854 157.568 20.1067 158.507 18.2934L159.85 19.0933C158.528 21.76 157.867 23.456 157.867 24.1814C157.867 24.48 157.962 24.736 158.154 24.9494C158.368 25.1414 158.57 25.2374 158.762 25.2374C158.976 25.2374 159.114 25.2267 159.178 25.2054C159.242 25.184 159.306 25.1627 159.37 25.1414C159.434 25.0987 159.509 25.0453 159.594 24.9813C159.701 24.9173 159.786 24.8534 159.85 24.7894C159.936 24.7254 160.064 24.6294 160.234 24.5014C160.405 24.3734 160.544 24.2667 160.65 24.1814Z"/>
<path d="M169.411 23.8294L170.115 24.6294C169.581 25.4614 168.931 26.112 168.163 26.5814C167.416 27.0507 166.659 27.2854 165.891 27.2854C165.123 27.2854 164.514 27.072 164.066 26.6454C163.618 26.1974 163.395 25.5894 163.395 24.8214C163.395 23.0293 164.067 20.5547 165.411 17.3974C164.323 17.568 163.234 17.824 162.146 18.1654L161.923 16.9174L161.891 16.8854C162.957 16.4374 164.355 16.0747 166.083 15.7974C166.253 15.4774 166.637 14.6987 167.234 13.4614C168.429 11.008 169.282 9.41868 169.794 8.69335L171.171 9.23735C170.957 9.70668 170.584 10.496 170.051 11.6054C169.517 12.6934 168.92 13.9307 168.258 15.3174C169.218 15.2534 169.976 15.2214 170.531 15.2214C171.085 15.2214 171.512 15.3067 171.811 15.4774V16.8534C171.512 16.7894 171.075 16.7574 170.499 16.7574C169.944 16.7574 168.941 16.8534 167.49 17.0454C166.232 19.8614 165.602 21.9094 165.602 23.1894C165.602 23.68 165.752 24.0854 166.051 24.4054C166.371 24.7254 166.787 24.8854 167.299 24.8854C167.832 24.8854 168.536 24.5334 169.411 23.8294Z"/>
<path d="M179.013 13.8454C177.818 13.8454 177.221 13.3654 177.221 12.4054C177.221 11.872 177.37 11.424 177.669 11.0613C177.968 10.6987 178.352 10.5174 178.821 10.5174C179.29 10.5174 179.674 10.656 179.973 10.9333C180.272 11.2107 180.421 11.5733 180.421 12.0213C180.421 12.4694 180.293 12.8854 180.037 13.2694C179.781 13.6534 179.44 13.8454 179.013 13.8454ZM178.597 23.2854L179.237 23.8294C178.725 24.8107 178.042 25.6534 177.189 26.3574C176.357 27.04 175.6 27.3814 174.917 27.3814C173.722 27.3814 173.125 26.5494 173.125 24.8854C173.125 22.816 173.978 20.1174 175.685 16.7894C176.069 16.064 176.293 15.6374 176.357 15.5094L177.733 16.3414C177.285 17.152 176.73 18.4427 176.069 20.2134C175.429 21.984 175.109 23.1254 175.109 23.6374C175.109 24.128 175.216 24.48 175.429 24.6934C175.642 24.9067 175.898 25.0134 176.197 25.0134C176.773 25.0134 177.573 24.4374 178.597 23.2854Z"/>
<path d="M191.512 15.9574L192.6 16.8214C189.762 20.5547 187.842 23.6694 186.84 26.1654C186.498 26.9974 186.008 27.4134 185.368 27.4134C184.962 27.4134 184.599 27.2 184.279 26.7734C183.981 26.3467 183.778 25.9627 183.671 25.6214C183.586 25.2587 183.437 24.512 183.223 23.3814C183.01 22.2507 182.776 21.0774 182.52 19.8614C182.264 18.624 182.05 17.7067 181.88 17.1094C181.73 16.4907 181.623 16.0854 181.559 15.8934C181.517 15.7014 181.431 15.5414 181.303 15.4134C181.175 15.264 181.101 15.168 181.079 15.1254L183.16 15.3174C183.778 16.832 184.269 18.4747 184.632 20.2453C184.717 20.608 184.866 21.344 185.079 22.4534C185.293 23.5414 185.464 24.3947 185.592 25.0134C186.765 22.752 187.789 20.9173 188.663 19.5093C189.559 18.08 190.509 16.896 191.512 15.9574Z"/>
<path d="M202.164 23.6374L202.9 24.2134C202.238 25.1307 201.332 25.8987 200.18 26.5174C199.028 27.1147 197.908 27.4134 196.82 27.4134C195.732 27.4134 194.857 27.0934 194.196 26.4534C193.534 25.8134 193.204 24.9707 193.204 23.9254C193.204 21.9627 194.238 20.032 196.308 18.1334C198.398 16.2347 200.51 15.2854 202.644 15.2854C204.052 15.2854 204.756 15.84 204.756 16.9494C204.756 18.1014 204.009 19.264 202.516 20.4374C201.044 21.6107 198.964 22.6774 196.276 23.6374C196.468 24.128 196.766 24.512 197.172 24.7894C197.577 25.0667 197.993 25.2054 198.42 25.2054C199.337 25.2054 200.585 24.6827 202.164 23.6374ZM196.116 22.6774C197.844 22.08 199.326 21.3334 200.564 20.4374C201.801 19.5414 202.42 18.72 202.42 17.9734C202.42 17.696 202.313 17.4507 202.1 17.2374C201.886 17.024 201.641 16.9174 201.364 16.9174C200.361 16.9174 199.273 17.5467 198.1 18.8054C196.948 20.0427 196.286 21.3334 196.116 22.6774Z"/>
<path d="M51.919 46.4534L51.819 47.6534C51.5123 47.6267 51.179 47.6133 50.819 47.6133C50.4723 47.6133 50.179 47.62 49.939 47.6334C49.7523 49.1 49.6323 50.6934 49.579 52.4134H48.179C48.099 52.0667 48.059 51.6067 48.059 51.0334C48.059 50.46 48.0723 49.9667 48.099 49.5534C48.139 49.1267 48.1857 48.7067 48.239 48.2934C48.2923 47.88 48.319 47.64 48.319 47.5733C48.1323 47.56 47.6923 47.5534 46.999 47.5534C46.3057 47.5534 45.8257 47.5667 45.559 47.5933C44.0123 49.6733 42.5857 51.2534 41.279 52.3334C39.9723 53.4 38.6657 53.9333 37.359 53.9333C36.719 53.9333 36.1857 53.74 35.759 53.3534C35.319 52.9667 35.099 52.4534 35.099 51.8134C35.099 50.6 36.019 49.4934 37.859 48.4934C39.7123 47.4934 42.1057 46.82 45.039 46.4734C45.3857 45.94 46.0323 45.12 46.979 44.0134C47.9257 42.8934 48.859 41.92 49.779 41.0933C50.179 40.16 50.4923 39.5134 50.719 39.1534C50.959 38.78 51.1923 38.5933 51.419 38.5933C51.6457 38.5933 51.8323 38.68 51.979 38.8534C52.1257 39.0267 52.199 39.2533 52.199 39.5333C52.199 39.8 52.0457 40.2 51.739 40.7333C51.4457 41.2533 51.139 42.0667 50.819 43.1734C50.499 44.2667 50.279 45.3 50.159 46.2733C50.8523 46.2733 51.439 46.3334 51.919 46.4534ZM41.719 50.6334C42.8257 49.58 43.659 48.58 44.219 47.6334C41.979 47.7667 40.2457 48.1867 39.019 48.8934C37.8057 49.6 37.199 50.3534 37.199 51.1534C37.199 51.5 37.3123 51.7734 37.539 51.9734C37.779 52.1734 38.0923 52.2733 38.479 52.2733C39.519 52.2733 40.599 51.7267 41.719 50.6334ZM48.559 46.2733C48.6523 45.82 48.7723 45.2533 48.919 44.5733C49.079 43.88 49.1723 43.4734 49.199 43.3534C48.559 43.9667 48.1123 44.42 47.859 44.7134C47.6057 44.9934 47.159 45.54 46.519 46.3534C46.7457 46.34 47.019 46.3334 47.339 46.3334C47.6723 46.32 47.9457 46.3067 48.159 46.2934C48.3723 46.28 48.5056 46.2733 48.559 46.2733Z"/>
<path d="M68.2091 45.3334C68.5425 45.3334 68.8158 45.4467 69.0291 45.6734C69.2425 45.9 69.3491 46.1934 69.3491 46.5534C69.3491 47.2734 68.9358 48.0334 68.1091 48.8334L67.6291 48.4534C67.8158 48.04 67.9091 47.74 67.9091 47.5534C67.9091 47.1934 67.7091 47.0134 67.3091 47.0134C66.9091 47.0134 66.5291 47.2667 66.1691 47.7733C65.8091 48.28 65.3825 49.0667 64.8891 50.1334C64.4091 51.1867 64.0425 51.9334 63.7891 52.3734L62.6491 51.8734C63.3825 50.2067 63.8025 49.2267 63.9091 48.9333C64.2691 47.8933 64.4491 46.5734 64.4491 44.9734L65.5691 44.6734C65.5291 45.54 65.4691 46.2134 65.3891 46.6934C65.3091 47.16 65.1158 47.9267 64.8091 48.9934C66.1558 46.5534 67.2891 45.3334 68.2091 45.3334Z"/>
<path d="M77.7385 50.2134L78.1585 50.5534C77.9318 51.1134 77.5718 51.5867 77.0785 51.9734C76.5985 52.36 76.1585 52.5534 75.7585 52.5534C75.3718 52.5534 75.0652 52.42 74.8385 52.1534C74.6118 51.8734 74.4985 51.5134 74.4985 51.0734C74.4985 50.6334 74.5718 50.0667 74.7185 49.3734C74.0918 50.36 73.4185 51.1334 72.6985 51.6934C71.9785 52.2534 71.3719 52.5334 70.8785 52.5334C70.1319 52.5334 69.7585 52 69.7585 50.9333C69.7585 50.0267 70.0652 48.8667 70.6785 47.4534C71.2918 46.04 71.7385 45.22 72.0185 44.9934L72.9785 45.4133C72.4318 46.2933 72.0185 47.16 71.7385 48.0134C71.4585 48.8667 71.3185 49.44 71.3185 49.7334C71.3185 50.0134 71.4052 50.24 71.5785 50.4133C71.7652 50.5867 71.9785 50.6734 72.2185 50.6734C72.7518 50.6734 73.4119 50.1867 74.1985 49.2134C74.9985 48.2267 75.8119 46.76 76.6385 44.8134L77.6585 45.2733C77.6318 45.38 77.3252 46.1533 76.7385 47.5933C76.1652 49.0333 75.8785 49.9 75.8785 50.1934C75.8785 50.4734 75.9385 50.6867 76.0585 50.8334C76.1919 50.98 76.3185 51.0534 76.4385 51.0534C76.5718 51.0534 76.6719 51.0467 76.7385 51.0334C76.8052 51.02 76.8718 50.9934 76.9385 50.9534C77.0052 50.9134 77.0585 50.88 77.0985 50.8534C77.1519 50.8267 77.2119 50.78 77.2785 50.7134L77.4385 50.5733C77.4652 50.5333 77.5118 50.4734 77.5785 50.3934C77.6585 50.3 77.7119 50.24 77.7385 50.2134Z"/>
<path d="M85.0671 44.5933L84.8871 45.3734C84.6604 45.3467 84.3671 45.3334 84.0071 45.3334C82.6738 45.3334 82.0071 45.7734 82.0071 46.6534C82.0071 46.84 82.2738 47.3867 82.8071 48.2934C83.3538 49.2 83.6271 49.8067 83.6271 50.1133C83.6271 50.8333 83.3804 51.4 82.8871 51.8134C82.4071 52.2134 81.7604 52.4134 80.9471 52.4134C79.8271 52.4134 78.9271 51.7934 78.2471 50.5534L79.0071 50.0134C79.1938 50.16 79.3938 50.34 79.6071 50.5534C79.8204 50.7534 79.9804 50.8934 80.0871 50.9734C80.3404 51.2 80.6204 51.3134 80.9271 51.3134C81.2338 51.3134 81.5004 51.2067 81.7271 50.9934C81.9538 50.7667 82.0671 50.4934 82.0671 50.1734C82.0671 49.84 81.7738 49.2267 81.1871 48.3334C80.6138 47.44 80.3271 46.8133 80.3271 46.4534C80.3271 45.8 80.6004 45.3 81.1471 44.9534C81.7071 44.6067 82.4338 44.4333 83.3271 44.4333C84.2338 44.4333 84.8138 44.4867 85.0671 44.5933Z"/>
<path d="M89.8282 50.1734L90.2682 50.6734C89.9349 51.1934 89.5282 51.6 89.0482 51.8934C88.5815 52.1867 88.1082 52.3334 87.6282 52.3334C87.1482 52.3334 86.7682 52.2 86.4882 51.9333C86.2082 51.6533 86.0682 51.2734 86.0682 50.7934C86.0682 49.6734 86.4882 48.1267 87.3282 46.1534C86.6482 46.26 85.9682 46.42 85.2882 46.6334L85.1482 45.8534L85.1282 45.8334C85.7949 45.5534 86.6682 45.3267 87.7482 45.1534C87.8549 44.9534 88.0949 44.4667 88.4682 43.6934C89.2149 42.16 89.7482 41.1667 90.0682 40.7133L90.9282 41.0534C90.7949 41.3467 90.5615 41.84 90.2282 42.5334C89.8949 43.2134 89.5215 43.9867 89.1082 44.8534C89.7082 44.8134 90.1815 44.7934 90.5282 44.7934C90.8749 44.7934 91.1415 44.8467 91.3282 44.9534V45.8134C91.1415 45.7734 90.8682 45.7533 90.5082 45.7533C90.1615 45.7533 89.5349 45.8133 88.6282 45.9333C87.8415 47.6933 87.4482 48.9733 87.4482 49.7733C87.4482 50.08 87.5415 50.3334 87.7282 50.5334C87.9282 50.7334 88.1882 50.8334 88.5082 50.8334C88.8415 50.8334 89.2815 50.6134 89.8282 50.1734Z"/>
<path d="M104.479 50.4934L104.899 50.8334C104.446 51.54 104.052 52.0534 103.719 52.3734C103.399 52.68 103.039 52.8334 102.639 52.8334C102.239 52.8334 101.912 52.6734 101.659 52.3534C101.406 52.0334 101.279 51.6334 101.279 51.1534C101.279 50.22 101.892 48.2134 103.119 45.1334C104.346 42.04 105.606 39.32 106.899 36.9734L107.779 37.4534C106.472 39.9867 105.292 42.5067 104.239 45.0134C103.186 47.5067 102.659 49.3 102.659 50.3934C102.659 51.02 102.892 51.3334 103.359 51.3334C103.732 51.3334 104.106 51.0534 104.479 50.4934Z"/>
<path d="M112.489 46.4734C112.835 47.0467 113.009 47.68 113.009 48.3734C113.009 49.4534 112.635 50.42 111.889 51.2733C111.142 52.1133 110.262 52.5334 109.249 52.5334C108.475 52.5334 107.869 52.3134 107.429 51.8734C107.002 51.42 106.789 50.8 106.789 50.0134C106.789 48.7467 107.282 47.6134 108.269 46.6133C109.255 45.6 110.362 45.0933 111.589 45.0933C111.815 45.0933 111.975 45.1 112.069 45.1133L112.129 45.7733C111.062 45.7733 110.175 46.08 109.469 46.6934C108.762 47.3067 108.409 48.0934 108.409 49.0534C108.409 49.6267 108.549 50.0934 108.829 50.4534C109.109 50.8 109.515 50.9734 110.049 50.9734C110.595 50.9734 111.029 50.7333 111.349 50.2533C111.669 49.7733 111.829 49.2134 111.829 48.5734C111.829 47.92 111.702 47.3267 111.449 46.7934L112.489 46.4734Z"/>
<path d="M122.03 51.6934L122.05 52.1734C121.917 52.2534 121.31 52.4934 120.23 52.8934C119.803 55.44 119.177 57.28 118.35 58.4134C117.523 59.5467 116.51 60.1133 115.31 60.1133C114.75 60.1133 114.303 59.9334 113.97 59.5734C113.637 59.2134 113.47 58.7467 113.47 58.1734C113.47 57.0267 113.997 55.9534 115.05 54.9534C116.103 53.9667 117.51 53.1867 119.27 52.6133C119.47 51.72 119.83 50.46 120.35 48.8334C119.457 50.1934 118.643 51.1133 117.91 51.5933C117.19 52.0733 116.537 52.3134 115.95 52.3134C115.363 52.3134 114.917 52.1534 114.61 51.8334C114.317 51.5134 114.17 51.0867 114.17 50.5534C114.17 49.6734 114.537 48.78 115.27 47.8734C116.003 46.9534 116.923 46.2067 118.03 45.6334C119.15 45.0467 120.23 44.7533 121.27 44.7533L121.43 45.4534C119.95 45.6133 118.677 46.1334 117.61 47.0134C116.557 47.8934 116.03 48.74 116.03 49.5534C116.03 49.9 116.137 50.1867 116.35 50.4133C116.563 50.64 116.823 50.7533 117.13 50.7533C117.583 50.7533 118.27 50.2734 119.19 49.3134C120.11 48.3534 120.757 47.5334 121.13 46.8534L121.87 47.2733C121.137 49.2333 120.63 50.8867 120.35 52.2334L122.03 51.6934ZM119.15 53.2134C117.99 53.7467 117.03 54.3867 116.27 55.1334C115.51 55.88 115.13 56.56 115.13 57.1734C115.13 57.4934 115.223 57.7534 115.41 57.9534C115.597 58.1534 115.83 58.2534 116.11 58.2534C116.67 58.2534 117.223 57.86 117.77 57.0734C118.317 56.2867 118.777 55 119.15 53.2134Z"/>
<path d="M126.474 43.9333C125.728 43.9333 125.354 43.6334 125.354 43.0334C125.354 42.7 125.448 42.42 125.634 42.1934C125.821 41.9667 126.061 41.8534 126.354 41.8534C126.648 41.8534 126.888 41.94 127.074 42.1133C127.261 42.2867 127.354 42.5134 127.354 42.7934C127.354 43.0734 127.274 43.3333 127.114 43.5733C126.954 43.8133 126.741 43.9333 126.474 43.9333ZM126.214 49.8334L126.614 50.1734C126.294 50.7867 125.868 51.3133 125.334 51.7533C124.814 52.18 124.341 52.3934 123.914 52.3934C123.168 52.3934 122.794 51.8734 122.794 50.8334C122.794 49.54 123.328 47.8533 124.394 45.7733C124.634 45.32 124.774 45.0534 124.814 44.9734L125.674 45.4934C125.394 46 125.048 46.8067 124.634 47.9133C124.234 49.02 124.034 49.7334 124.034 50.0534C124.034 50.36 124.101 50.58 124.234 50.7134C124.368 50.8467 124.528 50.9133 124.714 50.9133C125.074 50.9133 125.574 50.5534 126.214 49.8334Z"/>
<path d="M133.166 49.5734L133.646 49.9734C133.326 50.7067 132.813 51.2934 132.106 51.7334C131.399 52.1734 130.713 52.3934 130.046 52.3934C129.393 52.3934 128.846 52.1867 128.406 51.7733C127.979 51.36 127.766 50.7934 127.766 50.0734C127.766 49.3534 128.079 48.5734 128.706 47.7334C129.333 46.8934 130.139 46.2 131.126 45.6534C132.126 45.1067 133.106 44.8334 134.066 44.8334C134.199 44.8334 134.399 44.8467 134.666 44.8734L134.606 45.6534C133.139 45.72 131.919 46.1667 130.946 46.9934C129.986 47.82 129.506 48.7 129.506 49.6334C129.506 50.02 129.626 50.3333 129.866 50.5733C130.106 50.8133 130.419 50.9333 130.806 50.9333C131.419 50.9333 132.206 50.48 133.166 49.5734Z"/>
<path d="M150.08 49.5734L150.56 49.9734C150.24 50.7067 149.727 51.2934 149.02 51.7334C148.313 52.1734 147.627 52.3934 146.96 52.3934C146.307 52.3934 145.76 52.1867 145.32 51.7733C144.893 51.36 144.68 50.7934 144.68 50.0734C144.68 49.3534 144.993 48.5734 145.62 47.7334C146.247 46.8934 147.053 46.2 148.04 45.6534C149.04 45.1067 150.02 44.8334 150.98 44.8334C151.113 44.8334 151.313 44.8467 151.58 44.8734L151.52 45.6534C150.053 45.72 148.833 46.1667 147.86 46.9934C146.9 47.82 146.42 48.7 146.42 49.6334C146.42 50.02 146.54 50.3333 146.78 50.5733C147.02 50.8133 147.333 50.9333 147.72 50.9333C148.333 50.9333 149.12 50.48 150.08 49.5734Z"/>
<path d="M157.665 46.4734C158.011 47.0467 158.185 47.68 158.185 48.3734C158.185 49.4534 157.811 50.42 157.065 51.2733C156.318 52.1133 155.438 52.5334 154.425 52.5334C153.651 52.5334 153.045 52.3134 152.605 51.8734C152.178 51.42 151.965 50.8 151.965 50.0134C151.965 48.7467 152.458 47.6134 153.445 46.6133C154.431 45.6 155.538 45.0933 156.765 45.0933C156.991 45.0933 157.151 45.1 157.245 45.1133L157.305 45.7733C156.238 45.7733 155.351 46.08 154.645 46.6934C153.938 47.3067 153.585 48.0934 153.585 49.0534C153.585 49.6267 153.725 50.0934 154.005 50.4534C154.285 50.8 154.691 50.9734 155.225 50.9734C155.771 50.9734 156.205 50.7333 156.525 50.2533C156.845 49.7733 157.005 49.2134 157.005 48.5734C157.005 47.92 156.878 47.3267 156.625 46.7934L157.665 46.4734Z"/>
<path d="M164.186 45.3334C164.519 45.3334 164.792 45.4467 165.006 45.6734C165.219 45.9 165.326 46.1934 165.326 46.5534C165.326 47.2734 164.912 48.0334 164.086 48.8334L163.606 48.4534C163.792 48.04 163.886 47.74 163.886 47.5534C163.886 47.1934 163.686 47.0134 163.286 47.0134C162.886 47.0134 162.506 47.2667 162.146 47.7733C161.786 48.28 161.359 49.0667 160.866 50.1334C160.386 51.1867 160.019 51.9334 159.766 52.3734L158.626 51.8734C159.359 50.2067 159.779 49.2267 159.886 48.9333C160.246 47.8933 160.426 46.5734 160.426 44.9734L161.546 44.6734C161.506 45.54 161.446 46.2134 161.366 46.6934C161.286 47.16 161.092 47.9267 160.786 48.9934C162.132 46.5534 163.266 45.3334 164.186 45.3334Z"/>
<path d="M171.295 50.0534L171.755 50.4133C171.342 50.9867 170.775 51.4667 170.055 51.8534C169.335 52.2267 168.635 52.4134 167.955 52.4134C167.275 52.4134 166.728 52.2134 166.315 51.8134C165.902 51.4134 165.695 50.8867 165.695 50.2334C165.695 49.0067 166.342 47.8 167.635 46.6133C168.942 45.4267 170.262 44.8334 171.595 44.8334C172.475 44.8334 172.915 45.18 172.915 45.8734C172.915 46.5934 172.448 47.32 171.515 48.0534C170.595 48.7867 169.295 49.4534 167.615 50.0534C167.735 50.36 167.922 50.6 168.175 50.7733C168.428 50.9467 168.688 51.0334 168.955 51.0334C169.528 51.0334 170.308 50.7067 171.295 50.0534ZM167.515 49.4534C168.595 49.08 169.522 48.6134 170.295 48.0534C171.068 47.4934 171.455 46.98 171.455 46.5134C171.455 46.34 171.388 46.1867 171.255 46.0534C171.122 45.92 170.968 45.8534 170.795 45.8534C170.168 45.8534 169.488 46.2467 168.755 47.0334C168.035 47.8067 167.622 48.6133 167.515 49.4534Z"/>
</mask>
<path d="M28.912 17.8774L28.752 19.7974C28.2613 19.7547 27.728 19.7334 27.152 19.7334C26.5973 19.7334 26.128 19.744 25.744 19.7654C25.4453 22.112 25.2533 24.6614 25.168 27.4134H22.928C22.8 26.8587 22.736 26.1227 22.736 25.2054C22.736 24.288 22.7573 23.4987 22.8 22.8374C22.864 22.1547 22.9387 21.4827 23.024 20.8214C23.1093 20.16 23.152 19.776 23.152 19.6693C22.8533 19.648 22.1493 19.6374 21.04 19.6374C19.9307 19.6374 19.1627 19.6587 18.736 19.7014C16.2613 23.0294 13.9787 25.5574 11.888 27.2854C9.79733 28.992 7.70667 29.8454 5.616 29.8454C4.592 29.8454 3.73867 29.536 3.056 28.9174C2.352 28.2987 2 27.4774 2 26.4534C2 24.512 3.472 22.7413 6.416 21.1413C9.38133 19.5413 13.2107 18.464 17.904 17.9094C18.4587 17.056 19.4933 15.744 21.008 13.9734C22.5227 12.1814 24.016 10.624 25.488 9.30135C26.128 7.80802 26.6293 6.77335 26.992 6.19735C27.376 5.60002 27.7493 5.30135 28.112 5.30135C28.4747 5.30135 28.7733 5.44002 29.008 5.71735C29.2427 5.99468 29.36 6.35735 29.36 6.80535C29.36 7.23202 29.1147 7.87202 28.624 8.72535C28.1547 9.55735 27.664 10.8587 27.152 12.6294C26.64 14.3787 26.288 16.032 26.096 17.5894C27.2053 17.5894 28.144 17.6854 28.912 17.8774ZM12.592 24.5654C14.3627 22.88 15.696 21.28 16.592 19.7654C13.008 19.9787 10.2347 20.6507 8.272 21.7814C6.33067 22.912 5.36 24.1174 5.36 25.3974C5.36 25.952 5.54133 26.3894 5.904 26.7094C6.288 27.0294 6.78933 27.1894 7.408 27.1894C9.072 27.1894 10.8 26.3147 12.592 24.5654ZM23.536 17.5894C23.6853 16.864 23.8773 15.9574 24.112 14.8694C24.368 13.76 24.5173 13.1094 24.56 12.9174C23.536 13.8987 22.8213 14.624 22.416 15.0934C22.0107 15.5414 21.296 16.416 20.272 17.7174C20.6347 17.696 21.072 17.6854 21.584 17.6854C22.1173 17.664 22.5547 17.6427 22.896 17.6214C23.2373 17.6 23.4507 17.5894 23.536 17.5894Z" fill="#E1C3B3"/>
<path d="M35.6333 24.3414L36.3053 24.8854C35.5799 26.016 34.9506 26.8374 34.4173 27.3494C33.9053 27.84 33.3293 28.0854 32.6893 28.0854C32.0493 28.0854 31.5266 27.8294 31.1213 27.3174C30.7159 26.8054 30.5133 26.1654 30.5133 25.3974C30.5133 23.904 31.4946 20.6934 33.4573 15.7654C35.4199 10.816 37.4359 6.46402 39.5052 2.70935L40.9132 3.47735C38.8226 7.53068 36.9346 11.5627 35.2493 15.5734C33.5639 19.5627 32.7213 22.432 32.7213 24.1814C32.7213 25.184 33.0946 25.6854 33.8413 25.6854C34.4386 25.6854 35.0359 25.2374 35.6333 24.3414Z" fill="#E1C3B3"/>
<path d="M46.8167 23.8294L47.5208 24.6294C46.9874 25.4614 46.3368 26.112 45.5688 26.5814C44.8221 27.0507 44.0647 27.2854 43.2967 27.2854C42.5287 27.2854 41.9208 27.072 41.4728 26.6454C41.0248 26.1974 40.8008 25.5894 40.8008 24.8214C40.8008 23.0293 41.4727 20.5547 42.8167 17.3974C41.7287 17.568 40.6407 17.824 39.5527 18.1654L39.3288 16.9174L39.2967 16.8854C40.3634 16.4374 41.7608 16.0747 43.4888 15.7974C43.6594 15.4774 44.0434 14.6987 44.6408 13.4614C45.8354 11.008 46.6888 9.41868 47.2008 8.69335L48.5768 9.23735C48.3634 9.70668 47.9901 10.496 47.4567 11.6054C46.9234 12.6934 46.3261 13.9307 45.6647 15.3174C46.6247 15.2534 47.3821 15.2214 47.9368 15.2214C48.4914 15.2214 48.9181 15.3067 49.2168 15.4774V16.8534C48.9181 16.7894 48.4808 16.7574 47.9048 16.7574C47.3501 16.7574 46.3474 16.8534 44.8968 17.0454C43.6381 19.8614 43.0088 21.9094 43.0088 23.1894C43.0088 23.68 43.1581 24.0854 43.4567 24.4054C43.7767 24.7254 44.1928 24.8854 44.7048 24.8854C45.2381 24.8854 45.9421 24.5334 46.8167 23.8294Z" fill="#E1C3B3"/>
<path d="M60.3553 15.9574L61.4433 16.8214C58.6059 20.5547 56.6859 23.6694 55.6833 26.1654C55.3419 26.9974 54.8513 27.4134 54.2113 27.4134C53.8059 27.4134 53.4432 27.2 53.1232 26.7734C52.8246 26.3467 52.6219 25.9627 52.5153 25.6214C52.4299 25.2587 52.2806 24.512 52.0672 23.3814C51.8539 22.2507 51.6193 21.0774 51.3633 19.8614C51.1073 18.624 50.8939 17.7067 50.7233 17.1094C50.5739 16.4907 50.4673 16.0854 50.4033 15.8934C50.3606 15.7014 50.2753 15.5414 50.1473 15.4134C50.0193 15.264 49.9446 15.168 49.9233 15.1254L52.0033 15.3174C52.6219 16.832 53.1126 18.4747 53.4753 20.2453C53.5606 20.608 53.7099 21.344 53.9233 22.4534C54.1366 23.5414 54.3072 24.3947 54.4352 25.0134C55.6086 22.752 56.6326 20.9173 57.5073 19.5093C58.4033 18.08 59.3526 16.896 60.3553 15.9574Z" fill="#E1C3B3"/>
<path d="M71.0075 23.6374L71.7435 24.2134C71.0822 25.1307 70.1755 25.8987 69.0235 26.5174C67.8715 27.1147 66.7515 27.4134 65.6635 27.4134C64.5755 27.4134 63.7008 27.0934 63.0395 26.4534C62.3782 25.8134 62.0475 24.9707 62.0475 23.9254C62.0475 21.9627 63.0822 20.032 65.1515 18.1334C67.2422 16.2347 69.3542 15.2854 71.4875 15.2854C72.8955 15.2854 73.5995 15.84 73.5995 16.9494C73.5995 18.1014 72.8528 19.264 71.3595 20.4374C69.8875 21.6107 67.8075 22.6774 65.1195 23.6374C65.3115 24.128 65.6102 24.512 66.0155 24.7894C66.4208 25.0667 66.8368 25.2054 67.2635 25.2054C68.1808 25.2054 69.4288 24.6827 71.0075 23.6374ZM64.9595 22.6774C66.6875 22.08 68.1702 21.3334 69.4075 20.4374C70.6448 19.5414 71.2635 18.72 71.2635 17.9734C71.2635 17.696 71.1568 17.4507 70.9435 17.2374C70.7302 17.024 70.4848 16.9174 70.2075 16.9174C69.2048 16.9174 68.1168 17.5467 66.9435 18.8054C65.7915 20.0427 65.1302 21.3334 64.9595 22.6774Z" fill="#E1C3B3"/>
<path d="M83.195 16.0854C83.7283 16.0854 84.1657 16.2667 84.507 16.6294C84.8483 16.992 85.019 17.4614 85.019 18.0374C85.019 19.1894 84.3577 20.4054 83.035 21.6854L82.267 21.0774C82.5657 20.416 82.715 19.936 82.715 19.6374C82.715 19.0614 82.395 18.7733 81.755 18.7733C81.115 18.7733 80.507 19.1787 79.931 19.9894C79.355 20.8 78.6723 22.0587 77.883 23.7654C77.115 25.4507 76.5283 26.6454 76.123 27.3494L74.299 26.5494C75.4723 23.8827 76.1443 22.3147 76.315 21.8454C76.891 20.1814 77.179 18.0694 77.179 15.5094L78.971 15.0294C78.907 16.416 78.811 17.4934 78.683 18.2614C78.555 19.008 78.2457 20.2347 77.755 21.9414C79.9097 18.0374 81.723 16.0854 83.195 16.0854Z" fill="#E1C3B3"/>
<path d="M96.074 14.9014L95.786 16.1494C95.4233 16.1067 94.954 16.0854 94.378 16.0854C92.2447 16.0854 91.178 16.7894 91.178 18.1974C91.178 18.496 91.6047 19.3707 92.458 20.8214C93.3327 22.272 93.77 23.2427 93.77 23.7334C93.77 24.8854 93.3753 25.792 92.586 26.4534C91.818 27.0934 90.7833 27.4134 89.482 27.4134C87.69 27.4134 86.25 26.4214 85.162 24.4374L86.378 23.5734C86.6767 23.808 86.9967 24.096 87.338 24.4374C87.6793 24.7574 87.9353 24.9814 88.106 25.1094C88.5113 25.472 88.9593 25.6534 89.45 25.6534C89.9407 25.6534 90.3673 25.4827 90.73 25.1414C91.0927 24.7787 91.274 24.3414 91.274 23.8294C91.274 23.296 90.8047 22.3147 89.866 20.8854C88.9487 19.456 88.49 18.4534 88.49 17.8774C88.49 16.832 88.9273 16.032 89.802 15.4774C90.698 14.9227 91.8607 14.6454 93.29 14.6454C94.7407 14.6454 95.6687 14.7307 96.074 14.9014Z" fill="#E1C3B3"/>
<path d="M105.164 23.6374L105.9 24.2134C105.238 25.1307 104.332 25.8987 103.18 26.5174C102.028 27.1147 100.908 27.4134 99.8197 27.4134C98.7317 27.4134 97.8571 27.0934 97.1957 26.4534C96.5344 25.8134 96.2038 24.9707 96.2038 23.9254C96.2038 21.9627 97.2384 20.032 99.3077 18.1334C101.398 16.2347 103.51 15.2854 105.644 15.2854C107.052 15.2854 107.756 15.84 107.756 16.9494C107.756 18.1014 107.009 19.264 105.516 20.4374C104.044 21.6107 101.964 22.6774 99.2757 23.6374C99.4677 24.128 99.7664 24.512 100.172 24.7894C100.577 25.0667 100.993 25.2054 101.42 25.2054C102.337 25.2054 103.585 24.6827 105.164 23.6374ZM99.1158 22.6774C100.844 22.08 102.326 21.3334 103.564 20.4374C104.801 19.5414 105.42 18.72 105.42 17.9734C105.42 17.696 105.313 17.4507 105.1 17.2374C104.886 17.024 104.641 16.9174 104.364 16.9174C103.361 16.9174 102.273 17.5467 101.1 18.8054C99.9477 20.0427 99.2864 21.3334 99.1158 22.6774Z" fill="#E1C3B3"/>
<path d="M145.078 7.86135L146.934 8.08535C146.55 9.74935 146.028 11.7014 145.366 13.9413C144.726 16.16 144.14 17.9627 143.606 19.3493C143.073 20.7147 142.486 22.08 141.846 23.4454C141.228 24.7894 140.566 25.856 139.862 26.6454C139.158 27.4134 138.476 27.7974 137.814 27.7974C137.153 27.7974 136.662 27.552 136.342 27.0614C136.044 26.5707 135.894 25.7067 135.894 24.4694C135.894 23.2107 136.076 20.5867 136.438 16.5974C136.801 12.5867 136.982 10.4107 136.982 10.0693C137.004 9.70668 136.918 9.52535 136.726 9.52535C136.492 9.52535 136.214 9.85602 135.894 10.5174C135.574 11.1574 135.329 11.648 135.158 11.9894C134.71 12.992 134.422 13.696 134.294 14.1014C133.1 16.7894 132.033 19.008 131.094 20.7574C130.156 22.5067 129.078 24.128 127.862 25.6214C127.436 26.1334 126.828 26.656 126.038 27.1894C125.249 27.7227 124.513 28.128 123.83 28.4054L123.126 26.5174C124.897 25.7707 126.497 24.48 127.926 22.6454C129.356 20.7894 130.828 18.208 132.342 14.9014C133.878 11.5947 134.977 9.36535 135.638 8.21335C136.385 6.99735 137.142 6.38935 137.91 6.38935C138.401 6.38935 138.785 6.56002 139.062 6.90135C139.34 7.24268 139.478 7.69068 139.478 8.24535C139.478 8.77868 139.286 11.0187 138.902 14.9654C138.54 18.912 138.358 21.44 138.358 22.5494C138.358 23.6587 138.401 24.384 138.486 24.7254C138.593 25.0454 138.764 25.2054 138.998 25.2054C139.297 25.2054 139.617 24.8853 139.958 24.2453C141.132 21.9627 142.838 16.5014 145.078 7.86135Z" fill="#E1C3B3"/>
<path d="M160.65 24.1814L161.387 24.7254C161.088 25.3654 160.533 25.9734 159.723 26.5494C158.933 27.1254 158.208 27.4134 157.546 27.4134C156.288 27.4134 155.659 26.752 155.659 25.4294C155.659 24.8107 155.819 24.0747 156.139 23.2214L154.954 24.4374C153.802 25.6107 152.8 26.4 151.947 26.8054C151.115 27.2107 150.293 27.4134 149.482 27.4134C148.672 27.4134 148.053 27.1894 147.626 26.7414C147.221 26.272 147.018 25.632 147.018 24.8214C147.018 23.328 147.595 21.856 148.747 20.4053C149.899 18.9333 151.371 17.7387 153.163 16.8214C154.955 15.904 156.746 15.4347 158.538 15.4134L158.603 16.4694L157.258 16.7574C155.317 17.184 153.6 18.0374 152.107 19.3174C150.635 20.5974 149.898 21.8774 149.898 23.1574C149.898 24.416 150.41 25.0454 151.434 25.0454C152.394 25.0454 153.578 24.3734 154.986 23.0294C156.394 21.6854 157.568 20.1067 158.507 18.2934L159.85 19.0933C158.528 21.76 157.867 23.456 157.867 24.1814C157.867 24.48 157.962 24.736 158.154 24.9494C158.368 25.1414 158.57 25.2374 158.762 25.2374C158.976 25.2374 159.114 25.2267 159.178 25.2054C159.242 25.184 159.306 25.1627 159.37 25.1414C159.434 25.0987 159.509 25.0453 159.594 24.9813C159.701 24.9173 159.786 24.8534 159.85 24.7894C159.936 24.7254 160.064 24.6294 160.234 24.5014C160.405 24.3734 160.544 24.2667 160.65 24.1814Z" fill="#E1C3B3"/>
<path d="M169.411 23.8294L170.115 24.6294C169.581 25.4614 168.931 26.112 168.163 26.5814C167.416 27.0507 166.659 27.2854 165.891 27.2854C165.123 27.2854 164.514 27.072 164.066 26.6454C163.618 26.1974 163.395 25.5894 163.395 24.8214C163.395 23.0293 164.067 20.5547 165.411 17.3974C164.323 17.568 163.234 17.824 162.146 18.1654L161.923 16.9174L161.891 16.8854C162.957 16.4374 164.355 16.0747 166.083 15.7974C166.253 15.4774 166.637 14.6987 167.234 13.4614C168.429 11.008 169.282 9.41868 169.794 8.69335L171.171 9.23735C170.957 9.70668 170.584 10.496 170.051 11.6054C169.517 12.6934 168.92 13.9307 168.258 15.3174C169.218 15.2534 169.976 15.2214 170.531 15.2214C171.085 15.2214 171.512 15.3067 171.811 15.4774V16.8534C171.512 16.7894 171.075 16.7574 170.499 16.7574C169.944 16.7574 168.941 16.8534 167.49 17.0454C166.232 19.8614 165.602 21.9094 165.602 23.1894C165.602 23.68 165.752 24.0854 166.051 24.4054C166.371 24.7254 166.787 24.8854 167.299 24.8854C167.832 24.8854 168.536 24.5334 169.411 23.8294Z" fill="#E1C3B3"/>
<path d="M179.013 13.8454C177.818 13.8454 177.221 13.3654 177.221 12.4054C177.221 11.872 177.37 11.424 177.669 11.0613C177.968 10.6987 178.352 10.5174 178.821 10.5174C179.29 10.5174 179.674 10.656 179.973 10.9333C180.272 11.2107 180.421 11.5733 180.421 12.0213C180.421 12.4694 180.293 12.8854 180.037 13.2694C179.781 13.6534 179.44 13.8454 179.013 13.8454ZM178.597 23.2854L179.237 23.8294C178.725 24.8107 178.042 25.6534 177.189 26.3574C176.357 27.04 175.6 27.3814 174.917 27.3814C173.722 27.3814 173.125 26.5494 173.125 24.8854C173.125 22.816 173.978 20.1174 175.685 16.7894C176.069 16.064 176.293 15.6374 176.357 15.5094L177.733 16.3414C177.285 17.152 176.73 18.4427 176.069 20.2134C175.429 21.984 175.109 23.1254 175.109 23.6374C175.109 24.128 175.216 24.48 175.429 24.6934C175.642 24.9067 175.898 25.0134 176.197 25.0134C176.773 25.0134 177.573 24.4374 178.597 23.2854Z" fill="#E1C3B3"/>
<path d="M191.512 15.9574L192.6 16.8214C189.762 20.5547 187.842 23.6694 186.84 26.1654C186.498 26.9974 186.008 27.4134 185.368 27.4134C184.962 27.4134 184.599 27.2 184.279 26.7734C183.981 26.3467 183.778 25.9627 183.671 25.6214C183.586 25.2587 183.437 24.512 183.223 23.3814C183.01 22.2507 182.776 21.0774 182.52 19.8614C182.264 18.624 182.05 17.7067 181.88 17.1094C181.73 16.4907 181.623 16.0854 181.559 15.8934C181.517 15.7014 181.431 15.5414 181.303 15.4134C181.175 15.264 181.101 15.168 181.079 15.1254L183.16 15.3174C183.778 16.832 184.269 18.4747 184.632 20.2453C184.717 20.608 184.866 21.344 185.079 22.4534C185.293 23.5414 185.464 24.3947 185.592 25.0134C186.765 22.752 187.789 20.9173 188.663 19.5093C189.559 18.08 190.509 16.896 191.512 15.9574Z" fill="#E1C3B3"/>
<path d="M202.164 23.6374L202.9 24.2134C202.238 25.1307 201.332 25.8987 200.18 26.5174C199.028 27.1147 197.908 27.4134 196.82 27.4134C195.732 27.4134 194.857 27.0934 194.196 26.4534C193.534 25.8134 193.204 24.9707 193.204 23.9254C193.204 21.9627 194.238 20.032 196.308 18.1334C198.398 16.2347 200.51 15.2854 202.644 15.2854C204.052 15.2854 204.756 15.84 204.756 16.9494C204.756 18.1014 204.009 19.264 202.516 20.4374C201.044 21.6107 198.964 22.6774 196.276 23.6374C196.468 24.128 196.766 24.512 197.172 24.7894C197.577 25.0667 197.993 25.2054 198.42 25.2054C199.337 25.2054 200.585 24.6827 202.164 23.6374ZM196.116 22.6774C197.844 22.08 199.326 21.3334 200.564 20.4374C201.801 19.5414 202.42 18.72 202.42 17.9734C202.42 17.696 202.313 17.4507 202.1 17.2374C201.886 17.024 201.641 16.9174 201.364 16.9174C200.361 16.9174 199.273 17.5467 198.1 18.8054C196.948 20.0427 196.286 21.3334 196.116 22.6774Z" fill="#E1C3B3"/>
<path d="M51.919 46.4534L51.819 47.6534C51.5123 47.6267 51.179 47.6133 50.819 47.6133C50.4723 47.6133 50.179 47.62 49.939 47.6334C49.7523 49.1 49.6323 50.6934 49.579 52.4134H48.179C48.099 52.0667 48.059 51.6067 48.059 51.0334C48.059 50.46 48.0723 49.9667 48.099 49.5534C48.139 49.1267 48.1857 48.7067 48.239 48.2934C48.2923 47.88 48.319 47.64 48.319 47.5733C48.1323 47.56 47.6923 47.5534 46.999 47.5534C46.3057 47.5534 45.8257 47.5667 45.559 47.5933C44.0123 49.6733 42.5857 51.2534 41.279 52.3334C39.9723 53.4 38.6657 53.9333 37.359 53.9333C36.719 53.9333 36.1857 53.74 35.759 53.3534C35.319 52.9667 35.099 52.4534 35.099 51.8134C35.099 50.6 36.019 49.4934 37.859 48.4934C39.7123 47.4934 42.1057 46.82 45.039 46.4734C45.3857 45.94 46.0323 45.12 46.979 44.0134C47.9257 42.8934 48.859 41.92 49.779 41.0933C50.179 40.16 50.4923 39.5134 50.719 39.1534C50.959 38.78 51.1923 38.5933 51.419 38.5933C51.6457 38.5933 51.8323 38.68 51.979 38.8534C52.1257 39.0267 52.199 39.2533 52.199 39.5333C52.199 39.8 52.0457 40.2 51.739 40.7333C51.4457 41.2533 51.139 42.0667 50.819 43.1734C50.499 44.2667 50.279 45.3 50.159 46.2733C50.8523 46.2733 51.439 46.3334 51.919 46.4534ZM41.719 50.6334C42.8257 49.58 43.659 48.58 44.219 47.6334C41.979 47.7667 40.2457 48.1867 39.019 48.8934C37.8057 49.6 37.199 50.3534 37.199 51.1534C37.199 51.5 37.3123 51.7734 37.539 51.9734C37.779 52.1734 38.0923 52.2733 38.479 52.2733C39.519 52.2733 40.599 51.7267 41.719 50.6334ZM48.559 46.2733C48.6523 45.82 48.7723 45.2533 48.919 44.5733C49.079 43.88 49.1723 43.4734 49.199 43.3534C48.559 43.9667 48.1123 44.42 47.859 44.7134C47.6057 44.9934 47.159 45.54 46.519 46.3534C46.7457 46.34 47.019 46.3334 47.339 46.3334C47.6723 46.32 47.9457 46.3067 48.159 46.2934C48.3723 46.28 48.5056 46.2733 48.559 46.2733Z" fill="#E1C3B3"/>
<path d="M68.2091 45.3334C68.5425 45.3334 68.8158 45.4467 69.0291 45.6734C69.2425 45.9 69.3491 46.1934 69.3491 46.5534C69.3491 47.2734 68.9358 48.0334 68.1091 48.8334L67.6291 48.4534C67.8158 48.04 67.9091 47.74 67.9091 47.5534C67.9091 47.1934 67.7091 47.0134 67.3091 47.0134C66.9091 47.0134 66.5291 47.2667 66.1691 47.7733C65.8091 48.28 65.3825 49.0667 64.8891 50.1334C64.4091 51.1867 64.0425 51.9334 63.7891 52.3734L62.6491 51.8734C63.3825 50.2067 63.8025 49.2267 63.9091 48.9333C64.2691 47.8933 64.4491 46.5734 64.4491 44.9734L65.5691 44.6734C65.5291 45.54 65.4691 46.2134 65.3891 46.6934C65.3091 47.16 65.1158 47.9267 64.8091 48.9934C66.1558 46.5534 67.2891 45.3334 68.2091 45.3334Z" fill="#E1C3B3"/>
<path d="M77.7385 50.2134L78.1585 50.5534C77.9318 51.1134 77.5718 51.5867 77.0785 51.9734C76.5985 52.36 76.1585 52.5534 75.7585 52.5534C75.3718 52.5534 75.0652 52.42 74.8385 52.1534C74.6118 51.8734 74.4985 51.5134 74.4985 51.0734C74.4985 50.6334 74.5718 50.0667 74.7185 49.3734C74.0918 50.36 73.4185 51.1334 72.6985 51.6934C71.9785 52.2534 71.3719 52.5334 70.8785 52.5334C70.1319 52.5334 69.7585 52 69.7585 50.9333C69.7585 50.0267 70.0652 48.8667 70.6785 47.4534C71.2918 46.04 71.7385 45.22 72.0185 44.9934L72.9785 45.4133C72.4318 46.2933 72.0185 47.16 71.7385 48.0134C71.4585 48.8667 71.3185 49.44 71.3185 49.7334C71.3185 50.0134 71.4052 50.24 71.5785 50.4133C71.7652 50.5867 71.9785 50.6734 72.2185 50.6734C72.7518 50.6734 73.4119 50.1867 74.1985 49.2134C74.9985 48.2267 75.8119 46.76 76.6385 44.8134L77.6585 45.2733C77.6318 45.38 77.3252 46.1533 76.7385 47.5933C76.1652 49.0333 75.8785 49.9 75.8785 50.1934C75.8785 50.4734 75.9385 50.6867 76.0585 50.8334C76.1919 50.98 76.3185 51.0534 76.4385 51.0534C76.5718 51.0534 76.6719 51.0467 76.7385 51.0334C76.8052 51.02 76.8718 50.9934 76.9385 50.9534C77.0052 50.9134 77.0585 50.88 77.0985 50.8534C77.1519 50.8267 77.2119 50.78 77.2785 50.7134L77.4385 50.5733C77.4652 50.5333 77.5118 50.4734 77.5785 50.3934C77.6585 50.3 77.7119 50.24 77.7385 50.2134Z" fill="#E1C3B3"/>
<path d="M85.0671 44.5933L84.8871 45.3734C84.6604 45.3467 84.3671 45.3334 84.0071 45.3334C82.6738 45.3334 82.0071 45.7734 82.0071 46.6534C82.0071 46.84 82.2738 47.3867 82.8071 48.2934C83.3538 49.2 83.6271 49.8067 83.6271 50.1133C83.6271 50.8333 83.3804 51.4 82.8871 51.8134C82.4071 52.2134 81.7604 52.4134 80.9471 52.4134C79.8271 52.4134 78.9271 51.7934 78.2471 50.5534L79.0071 50.0134C79.1938 50.16 79.3938 50.34 79.6071 50.5534C79.8204 50.7534 79.9804 50.8934 80.0871 50.9734C80.3404 51.2 80.6204 51.3134 80.9271 51.3134C81.2338 51.3134 81.5004 51.2067 81.7271 50.9934C81.9538 50.7667 82.0671 50.4934 82.0671 50.1734C82.0671 49.84 81.7738 49.2267 81.1871 48.3334C80.6138 47.44 80.3271 46.8133 80.3271 46.4534C80.3271 45.8 80.6004 45.3 81.1471 44.9534C81.7071 44.6067 82.4338 44.4333 83.3271 44.4333C84.2338 44.4333 84.8138 44.4867 85.0671 44.5933Z" fill="#E1C3B3"/>
<path d="M89.8282 50.1734L90.2682 50.6734C89.9349 51.1934 89.5282 51.6 89.0482 51.8934C88.5815 52.1867 88.1082 52.3334 87.6282 52.3334C87.1482 52.3334 86.7682 52.2 86.4882 51.9333C86.2082 51.6533 86.0682 51.2734 86.0682 50.7934C86.0682 49.6734 86.4882 48.1267 87.3282 46.1534C86.6482 46.26 85.9682 46.42 85.2882 46.6334L85.1482 45.8534L85.1282 45.8334C85.7949 45.5534 86.6682 45.3267 87.7482 45.1534C87.8549 44.9534 88.0949 44.4667 88.4682 43.6934C89.2149 42.16 89.7482 41.1667 90.0682 40.7133L90.9282 41.0534C90.7949 41.3467 90.5615 41.84 90.2282 42.5334C89.8949 43.2134 89.5215 43.9867 89.1082 44.8534C89.7082 44.8134 90.1815 44.7934 90.5282 44.7934C90.8749 44.7934 91.1415 44.8467 91.3282 44.9534V45.8134C91.1415 45.7734 90.8682 45.7533 90.5082 45.7533C90.1615 45.7533 89.5349 45.8133 88.6282 45.9333C87.8415 47.6933 87.4482 48.9733 87.4482 49.7733C87.4482 50.08 87.5415 50.3334 87.7282 50.5334C87.9282 50.7334 88.1882 50.8334 88.5082 50.8334C88.8415 50.8334 89.2815 50.6134 89.8282 50.1734Z" fill="#E1C3B3"/>
<path d="M104.479 50.4934L104.899 50.8334C104.446 51.54 104.052 52.0534 103.719 52.3734C103.399 52.68 103.039 52.8334 102.639 52.8334C102.239 52.8334 101.912 52.6734 101.659 52.3534C101.406 52.0334 101.279 51.6334 101.279 51.1534C101.279 50.22 101.892 48.2134 103.119 45.1334C104.346 42.04 105.606 39.32 106.899 36.9734L107.779 37.4534C106.472 39.9867 105.292 42.5067 104.239 45.0134C103.186 47.5067 102.659 49.3 102.659 50.3934C102.659 51.02 102.892 51.3334 103.359 51.3334C103.732 51.3334 104.106 51.0534 104.479 50.4934Z" fill="#E1C3B3"/>
<path d="M112.489 46.4734C112.835 47.0467 113.009 47.68 113.009 48.3734C113.009 49.4534 112.635 50.42 111.889 51.2733C111.142 52.1133 110.262 52.5334 109.249 52.5334C108.475 52.5334 107.869 52.3134 107.429 51.8734C107.002 51.42 106.789 50.8 106.789 50.0134C106.789 48.7467 107.282 47.6134 108.269 46.6133C109.255 45.6 110.362 45.0933 111.589 45.0933C111.815 45.0933 111.975 45.1 112.069 45.1133L112.129 45.7733C111.062 45.7733 110.175 46.08 109.469 46.6934C108.762 47.3067 108.409 48.0934 108.409 49.0534C108.409 49.6267 108.549 50.0934 108.829 50.4534C109.109 50.8 109.515 50.9734 110.049 50.9734C110.595 50.9734 111.029 50.7333 111.349 50.2533C111.669 49.7733 111.829 49.2134 111.829 48.5734C111.829 47.92 111.702 47.3267 111.449 46.7934L112.489 46.4734Z" fill="#E1C3B3"/>
<path d="M122.03 51.6934L122.05 52.1734C121.917 52.2534 121.31 52.4934 120.23 52.8934C119.803 55.44 119.177 57.28 118.35 58.4134C117.523 59.5467 116.51 60.1133 115.31 60.1133C114.75 60.1133 114.303 59.9334 113.97 59.5734C113.637 59.2134 113.47 58.7467 113.47 58.1734C113.47 57.0267 113.997 55.9534 115.05 54.9534C116.103 53.9667 117.51 53.1867 119.27 52.6133C119.47 51.72 119.83 50.46 120.35 48.8334C119.457 50.1934 118.643 51.1133 117.91 51.5933C117.19 52.0733 116.537 52.3134 115.95 52.3134C115.363 52.3134 114.917 52.1534 114.61 51.8334C114.317 51.5134 114.17 51.0867 114.17 50.5534C114.17 49.6734 114.537 48.78 115.27 47.8734C116.003 46.9534 116.923 46.2067 118.03 45.6334C119.15 45.0467 120.23 44.7533 121.27 44.7533L121.43 45.4534C119.95 45.6133 118.677 46.1334 117.61 47.0134C116.557 47.8934 116.03 48.74 116.03 49.5534C116.03 49.9 116.137 50.1867 116.35 50.4133C116.563 50.64 116.823 50.7533 117.13 50.7533C117.583 50.7533 118.27 50.2734 119.19 49.3134C120.11 48.3534 120.757 47.5334 121.13 46.8534L121.87 47.2733C121.137 49.2333 120.63 50.8867 120.35 52.2334L122.03 51.6934ZM119.15 53.2134C117.99 53.7467 117.03 54.3867 116.27 55.1334C115.51 55.88 115.13 56.56 115.13 57.1734C115.13 57.4934 115.223 57.7534 115.41 57.9534C115.597 58.1534 115.83 58.2534 116.11 58.2534C116.67 58.2534 117.223 57.86 117.77 57.0734C118.317 56.2867 118.777 55 119.15 53.2134Z" fill="#E1C3B3"/>
<path d="M126.474 43.9333C125.728 43.9333 125.354 43.6334 125.354 43.0334C125.354 42.7 125.448 42.42 125.634 42.1934C125.821 41.9667 126.061 41.8534 126.354 41.8534C126.648 41.8534 126.888 41.94 127.074 42.1133C127.261 42.2867 127.354 42.5134 127.354 42.7934C127.354 43.0734 127.274 43.3333 127.114 43.5733C126.954 43.8133 126.741 43.9333 126.474 43.9333ZM126.214 49.8334L126.614 50.1734C126.294 50.7867 125.868 51.3133 125.334 51.7533C124.814 52.18 124.341 52.3934 123.914 52.3934C123.168 52.3934 122.794 51.8734 122.794 50.8334C122.794 49.54 123.328 47.8533 124.394 45.7733C124.634 45.32 124.774 45.0534 124.814 44.9734L125.674 45.4934C125.394 46 125.048 46.8067 124.634 47.9133C124.234 49.02 124.034 49.7334 124.034 50.0534C124.034 50.36 124.101 50.58 124.234 50.7134C124.368 50.8467 124.528 50.9133 124.714 50.9133C125.074 50.9133 125.574 50.5534 126.214 49.8334Z" fill="#E1C3B3"/>
<path d="M133.166 49.5734L133.646 49.9734C133.326 50.7067 132.813 51.2934 132.106 51.7334C131.399 52.1734 130.713 52.3934 130.046 52.3934C129.393 52.3934 128.846 52.1867 128.406 51.7733C127.979 51.36 127.766 50.7934 127.766 50.0734C127.766 49.3534 128.079 48.5734 128.706 47.7334C129.333 46.8934 130.139 46.2 131.126 45.6534C132.126 45.1067 133.106 44.8334 134.066 44.8334C134.199 44.8334 134.399 44.8467 134.666 44.8734L134.606 45.6534C133.139 45.72 131.919 46.1667 130.946 46.9934C129.986 47.82 129.506 48.7 129.506 49.6334C129.506 50.02 129.626 50.3333 129.866 50.5733C130.106 50.8133 130.419 50.9333 130.806 50.9333C131.419 50.9333 132.206 50.48 133.166 49.5734Z" fill="#E1C3B3"/>
<path d="M150.08 49.5734L150.56 49.9734C150.24 50.7067 149.727 51.2934 149.02 51.7334C148.313 52.1734 147.627 52.3934 146.96 52.3934C146.307 52.3934 145.76 52.1867 145.32 51.7733C144.893 51.36 144.68 50.7934 144.68 50.0734C144.68 49.3534 144.993 48.5734 145.62 47.7334C146.247 46.8934 147.053 46.2 148.04 45.6534C149.04 45.1067 150.02 44.8334 150.98 44.8334C151.113 44.8334 151.313 44.8467 151.58 44.8734L151.52 45.6534C150.053 45.72 148.833 46.1667 147.86 46.9934C146.9 47.82 146.42 48.7 146.42 49.6334C146.42 50.02 146.54 50.3333 146.78 50.5733C147.02 50.8133 147.333 50.9333 147.72 50.9333C148.333 50.9333 149.12 50.48 150.08 49.5734Z" fill="#E1C3B3"/>
<path d="M157.665 46.4734C158.011 47.0467 158.185 47.68 158.185 48.3734C158.185 49.4534 157.811 50.42 157.065 51.2733C156.318 52.1133 155.438 52.5334 154.425 52.5334C153.651 52.5334 153.045 52.3134 152.605 51.8734C152.178 51.42 151.965 50.8 151.965 50.0134C151.965 48.7467 152.458 47.6134 153.445 46.6133C154.431 45.6 155.538 45.0933 156.765 45.0933C156.991 45.0933 157.151 45.1 157.245 45.1133L157.305 45.7733C156.238 45.7733 155.351 46.08 154.645 46.6934C153.938 47.3067 153.585 48.0934 153.585 49.0534C153.585 49.6267 153.725 50.0934 154.005 50.4534C154.285 50.8 154.691 50.9734 155.225 50.9734C155.771 50.9734 156.205 50.7333 156.525 50.2533C156.845 49.7733 157.005 49.2134 157.005 48.5734C157.005 47.92 156.878 47.3267 156.625 46.7934L157.665 46.4734Z" fill="#E1C3B3"/>
<path d="M164.186 45.3334C164.519 45.3334 164.792 45.4467 165.006 45.6734C165.219 45.9 165.326 46.1934 165.326 46.5534C165.326 47.2734 164.912 48.0334 164.086 48.8334L163.606 48.4534C163.792 48.04 163.886 47.74 163.886 47.5534C163.886 47.1934 163.686 47.0134 163.286 47.0134C162.886 47.0134 162.506 47.2667 162.146 47.7733C161.786 48.28 161.359 49.0667 160.866 50.1334C160.386 51.1867 160.019 51.9334 159.766 52.3734L158.626 51.8734C159.359 50.2067 159.779 49.2267 159.886 48.9333C160.246 47.8933 160.426 46.5734 160.426 44.9734L161.546 44.6734C161.506 45.54 161.446 46.2134 161.366 46.6934C161.286 47.16 161.092 47.9267 160.786 48.9934C162.132 46.5534 163.266 45.3334 164.186 45.3334Z" fill="#E1C3B3"/>
<path d="M171.295 50.0534L171.755 50.4133C171.342 50.9867 170.775 51.4667 170.055 51.8534C169.335 52.2267 168.635 52.4134 167.955 52.4134C167.275 52.4134 166.728 52.2134 166.315 51.8134C165.902 51.4134 165.695 50.8867 165.695 50.2334C165.695 49.0067 166.342 47.8 167.635 46.6133C168.942 45.4267 170.262 44.8334 171.595 44.8334C172.475 44.8334 172.915 45.18 172.915 45.8734C172.915 46.5934 172.448 47.32 171.515 48.0534C170.595 48.7867 169.295 49.4534 167.615 50.0534C167.735 50.36 167.922 50.6 168.175 50.7733C168.428 50.9467 168.688 51.0334 168.955 51.0334C169.528 51.0334 170.308 50.7067 171.295 50.0534ZM167.515 49.4534C168.595 49.08 169.522 48.6134 170.295 48.0534C171.068 47.4934 171.455 46.98 171.455 46.5134C171.455 46.34 171.388 46.1867 171.255 46.0534C171.122 45.92 170.968 45.8534 170.795 45.8534C170.168 45.8534 169.488 46.2467 168.755 47.0334C168.035 47.8067 167.622 48.6133 167.515 49.4534Z" fill="#E1C3B3"/>
<path d="M28.912 17.8774L28.752 19.7974C28.2613 19.7547 27.728 19.7334 27.152 19.7334C26.5973 19.7334 26.128 19.744 25.744 19.7654C25.4453 22.112 25.2533 24.6614 25.168 27.4134H22.928C22.8 26.8587 22.736 26.1227 22.736 25.2054C22.736 24.288 22.7573 23.4987 22.8 22.8374C22.864 22.1547 22.9387 21.4827 23.024 20.8214C23.1093 20.16 23.152 19.776 23.152 19.6693C22.8533 19.648 22.1493 19.6374 21.04 19.6374C19.9307 19.6374 19.1627 19.6587 18.736 19.7014C16.2613 23.0294 13.9787 25.5574 11.888 27.2854C9.79733 28.992 7.70667 29.8454 5.616 29.8454C4.592 29.8454 3.73867 29.536 3.056 28.9174C2.352 28.2987 2 27.4774 2 26.4534C2 24.512 3.472 22.7413 6.416 21.1413C9.38133 19.5413 13.2107 18.464 17.904 17.9094C18.4587 17.056 19.4933 15.744 21.008 13.9734C22.5227 12.1814 24.016 10.624 25.488 9.30135C26.128 7.80802 26.6293 6.77335 26.992 6.19735C27.376 5.60002 27.7493 5.30135 28.112 5.30135C28.4747 5.30135 28.7733 5.44002 29.008 5.71735C29.2427 5.99468 29.36 6.35735 29.36 6.80535C29.36 7.23202 29.1147 7.87202 28.624 8.72535C28.1547 9.55735 27.664 10.8587 27.152 12.6294C26.64 14.3787 26.288 16.032 26.096 17.5894C27.2053 17.5894 28.144 17.6854 28.912 17.8774ZM12.592 24.5654C14.3627 22.88 15.696 21.28 16.592 19.7654C13.008 19.9787 10.2347 20.6507 8.272 21.7814C6.33067 22.912 5.36 24.1174 5.36 25.3974C5.36 25.952 5.54133 26.3894 5.904 26.7094C6.288 27.0294 6.78933 27.1894 7.408 27.1894C9.072 27.1894 10.8 26.3147 12.592 24.5654ZM23.536 17.5894C23.6853 16.864 23.8773 15.9574 24.112 14.8694C24.368 13.76 24.5173 13.1094 24.56 12.9174C23.536 13.8987 22.8213 14.624 22.416 15.0934C22.0107 15.5414 21.296 16.416 20.272 17.7174C20.6347 17.696 21.072 17.6854 21.584 17.6854C22.1173 17.664 22.5547 17.6427 22.896 17.6214C23.2373 17.6 23.4507 17.5894 23.536 17.5894Z" stroke="#5A444D" stroke-width="4" mask="url(#path-1-outside-1_187_118)"/>
<path d="M35.6333 24.3414L36.3053 24.8854C35.5799 26.016 34.9506 26.8374 34.4173 27.3494C33.9053 27.84 33.3293 28.0854 32.6893 28.0854C32.0493 28.0854 31.5266 27.8294 31.1213 27.3174C30.7159 26.8054 30.5133 26.1654 30.5133 25.3974C30.5133 23.904 31.4946 20.6934 33.4573 15.7654C35.4199 10.816 37.4359 6.46402 39.5052 2.70935L40.9132 3.47735C38.8226 7.53068 36.9346 11.5627 35.2493 15.5734C33.5639 19.5627 32.7213 22.432 32.7213 24.1814C32.7213 25.184 33.0946 25.6854 33.8413 25.6854C34.4386 25.6854 35.0359 25.2374 35.6333 24.3414Z" stroke="#5A444D" stroke-width="4" mask="url(#path-1-outside-1_187_118)"/>
<path d="M46.8167 23.8294L47.5208 24.6294C46.9874 25.4614 46.3368 26.112 45.5688 26.5814C44.8221 27.0507 44.0647 27.2854 43.2967 27.2854C42.5287 27.2854 41.9208 27.072 41.4728 26.6454C41.0248 26.1974 40.8008 25.5894 40.8008 24.8214C40.8008 23.0293 41.4727 20.5547 42.8167 17.3974C41.7287 17.568 40.6407 17.824 39.5527 18.1654L39.3288 16.9174L39.2967 16.8854C40.3634 16.4374 41.7608 16.0747 43.4888 15.7974C43.6594 15.4774 44.0434 14.6987 44.6408 13.4614C45.8354 11.008 46.6888 9.41868 47.2008 8.69335L48.5768 9.23735C48.3634 9.70668 47.9901 10.496 47.4567 11.6054C46.9234 12.6934 46.3261 13.9307 45.6647 15.3174C46.6247 15.2534 47.3821 15.2214 47.9368 15.2214C48.4914 15.2214 48.9181 15.3067 49.2168 15.4774V16.8534C48.9181 16.7894 48.4808 16.7574 47.9048 16.7574C47.3501 16.7574 46.3474 16.8534 44.8968 17.0454C43.6381 19.8614 43.0088 21.9094 43.0088 23.1894C43.0088 23.68 43.1581 24.0854 43.4567 24.4054C43.7767 24.7254 44.1928 24.8854 44.7048 24.8854C45.2381 24.8854 45.9421 24.5334 46.8167 23.8294Z" stroke="#5A444D" stroke-width="4" mask="url(#path-1-outside-1_187_118)"/>
<path d="M60.3553 15.9574L61.4433 16.8214C58.6059 20.5547 56.6859 23.6694 55.6833 26.1654C55.3419 26.9974 54.8513 27.4134 54.2113 27.4134C53.8059 27.4134 53.4432 27.2 53.1232 26.7734C52.8246 26.3467 52.6219 25.9627 52.5153 25.6214C52.4299 25.2587 52.2806 24.512 52.0672 23.3814C51.8539 22.2507 51.6193 21.0774 51.3633 19.8614C51.1073 18.624 50.8939 17.7067 50.7233 17.1094C50.5739 16.4907 50.4673 16.0854 50.4033 15.8934C50.3606 15.7014 50.2753 15.5414 50.1473 15.4134C50.0193 15.264 49.9446 15.168 49.9233 15.1254L52.0033 15.3174C52.6219 16.832 53.1126 18.4747 53.4753 20.2453C53.5606 20.608 53.7099 21.344 53.9233 22.4534C54.1366 23.5414 54.3072 24.3947 54.4352 25.0134C55.6086 22.752 56.6326 20.9173 57.5073 19.5093C58.4033 18.08 59.3526 16.896 60.3553 15.9574Z" stroke="#5A444D" stroke-width="4" mask="url(#path-1-outside-1_187_118)"/>
<path d="M71.0075 23.6374L71.7435 24.2134C71.0822 25.1307 70.1755 25.8987 69.0235 26.5174C67.8715 27.1147 66.7515 27.4134 65.6635 27.4134C64.5755 27.4134 63.7008 27.0934 63.0395 26.4534C62.3782 25.8134 62.0475 24.9707 62.0475 23.9254C62.0475 21.9627 63.0822 20.032 65.1515 18.1334C67.2422 16.2347 69.3542 15.2854 71.4875 15.2854C72.8955 15.2854 73.5995 15.84 73.5995 16.9494C73.5995 18.1014 72.8528 19.264 71.3595 20.4374C69.8875 21.6107 67.8075 22.6774 65.1195 23.6374C65.3115 24.128 65.6102 24.512 66.0155 24.7894C66.4208 25.0667 66.8368 25.2054 67.2635 25.2054C68.1808 25.2054 69.4288 24.6827 71.0075 23.6374ZM64.9595 22.6774C66.6875 22.08 68.1702 21.3334 69.4075 20.4374C70.6448 19.5414 71.2635 18.72 71.2635 17.9734C71.2635 17.696 71.1568 17.4507 70.9435 17.2374C70.7302 17.024 70.4848 16.9174 70.2075 16.9174C69.2048 16.9174 68.1168 17.5467 66.9435 18.8054C65.7915 20.0427 65.1302 21.3334 64.9595 22.6774Z" stroke="#5A444D" stroke-width="4" mask="url(#path-1-outside-1_187_118)"/>
<path d="M83.195 16.0854C83.7283 16.0854 84.1657 16.2667 84.507 16.6294C84.8483 16.992 85.019 17.4614 85.019 18.0374C85.019 19.1894 84.3577 20.4054 83.035 21.6854L82.267 21.0774C82.5657 20.416 82.715 19.936 82.715 19.6374C82.715 19.0614 82.395 18.7733 81.755 18.7733C81.115 18.7733 80.507 19.1787 79.931 19.9894C79.355 20.8 78.6723 22.0587 77.883 23.7654C77.115 25.4507 76.5283 26.6454 76.123 27.3494L74.299 26.5494C75.4723 23.8827 76.1443 22.3147 76.315 21.8454C76.891 20.1814 77.179 18.0694 77.179 15.5094L78.971 15.0294C78.907 16.416 78.811 17.4934 78.683 18.2614C78.555 19.008 78.2457 20.2347 77.755 21.9414C79.9097 18.0374 81.723 16.0854 83.195 16.0854Z" stroke="#5A444D" stroke-width="4" mask="url(#path-1-outside-1_187_118)"/>
<path d="M96.074 14.9014L95.786 16.1494C95.4233 16.1067 94.954 16.0854 94.378 16.0854C92.2447 16.0854 91.178 16.7894 91.178 18.1974C91.178 18.496 91.6047 19.3707 92.458 20.8214C93.3327 22.272 93.77 23.2427 93.77 23.7334C93.77 24.8854 93.3753 25.792 92.586 26.4534C91.818 27.0934 90.7833 27.4134 89.482 27.4134C87.69 27.4134 86.25 26.4214 85.162 24.4374L86.378 23.5734C86.6767 23.808 86.9967 24.096 87.338 24.4374C87.6793 24.7574 87.9353 24.9814 88.106 25.1094C88.5113 25.472 88.9593 25.6534 89.45 25.6534C89.9407 25.6534 90.3673 25.4827 90.73 25.1414C91.0927 24.7787 91.274 24.3414 91.274 23.8294C91.274 23.296 90.8047 22.3147 89.866 20.8854C88.9487 19.456 88.49 18.4534 88.49 17.8774C88.49 16.832 88.9273 16.032 89.802 15.4774C90.698 14.9227 91.8607 14.6454 93.29 14.6454C94.7407 14.6454 95.6687 14.7307 96.074 14.9014Z" stroke="#5A444D" stroke-width="4" mask="url(#path-1-outside-1_187_118)"/>
<path d="M105.164 23.6374L105.9 24.2134C105.238 25.1307 104.332 25.8987 103.18 26.5174C102.028 27.1147 100.908 27.4134 99.8197 27.4134C98.7317 27.4134 97.8571 27.0934 97.1957 26.4534C96.5344 25.8134 96.2038 24.9707 96.2038 23.9254C96.2038 21.9627 97.2384 20.032 99.3077 18.1334C101.398 16.2347 103.51 15.2854 105.644 15.2854C107.052 15.2854 107.756 15.84 107.756 16.9494C107.756 18.1014 107.009 19.264 105.516 20.4374C104.044 21.6107 101.964 22.6774 99.2757 23.6374C99.4677 24.128 99.7664 24.512 100.172 24.7894C100.577 25.0667 100.993 25.2054 101.42 25.2054C102.337 25.2054 103.585 24.6827 105.164 23.6374ZM99.1158 22.6774C100.844 22.08 102.326 21.3334 103.564 20.4374C104.801 19.5414 105.42 18.72 105.42 17.9734C105.42 17.696 105.313 17.4507 105.1 17.2374C104.886 17.024 104.641 16.9174 104.364 16.9174C103.361 16.9174 102.273 17.5467 101.1 18.8054C99.9477 20.0427 99.2864 21.3334 99.1158 22.6774Z" stroke="#5A444D" stroke-width="4" mask="url(#path-1-outside-1_187_118)"/>
<path d="M145.078 7.86135L146.934 8.08535C146.55 9.74935 146.028 11.7014 145.366 13.9413C144.726 16.16 144.14 17.9627 143.606 19.3493C143.073 20.7147 142.486 22.08 141.846 23.4454C141.228 24.7894 140.566 25.856 139.862 26.6454C139.158 27.4134 138.476 27.7974 137.814 27.7974C137.153 27.7974 136.662 27.552 136.342 27.0614C136.044 26.5707 135.894 25.7067 135.894 24.4694C135.894 23.2107 136.076 20.5867 136.438 16.5974C136.801 12.5867 136.982 10.4107 136.982 10.0693C137.004 9.70668 136.918 9.52535 136.726 9.52535C136.492 9.52535 136.214 9.85602 135.894 10.5174C135.574 11.1574 135.329 11.648 135.158 11.9894C134.71 12.992 134.422 13.696 134.294 14.1014C133.1 16.7894 132.033 19.008 131.094 20.7574C130.156 22.5067 129.078 24.128 127.862 25.6214C127.436 26.1334 126.828 26.656 126.038 27.1894C125.249 27.7227 124.513 28.128 123.83 28.4054L123.126 26.5174C124.897 25.7707 126.497 24.48 127.926 22.6454C129.356 20.7894 130.828 18.208 132.342 14.9014C133.878 11.5947 134.977 9.36535 135.638 8.21335C136.385 6.99735 137.142 6.38935 137.91 6.38935C138.401 6.38935 138.785 6.56002 139.062 6.90135C139.34 7.24268 139.478 7.69068 139.478 8.24535C139.478 8.77868 139.286 11.0187 138.902 14.9654C138.54 18.912 138.358 21.44 138.358 22.5494C138.358 23.6587 138.401 24.384 138.486 24.7254C138.593 25.0454 138.764 25.2054 138.998 25.2054C139.297 25.2054 139.617 24.8853 139.958 24.2453C141.132 21.9627 142.838 16.5014 145.078 7.86135Z" stroke="#5A444D" stroke-width="4" mask="url(#path-1-outside-1_187_118)"/>
<path d="M160.65 24.1814L161.387 24.7254C161.088 25.3654 160.533 25.9734 159.723 26.5494C158.933 27.1254 158.208 27.4134 157.546 27.4134C156.288 27.4134 155.659 26.752 155.659 25.4294C155.659 24.8107 155.819 24.0747 156.139 23.2214L154.954 24.4374C153.802 25.6107 152.8 26.4 151.947 26.8054C151.115 27.2107 150.293 27.4134 149.482 27.4134C148.672 27.4134 148.053 27.1894 147.626 26.7414C147.221 26.272 147.018 25.632 147.018 24.8214C147.018 23.328 147.595 21.856 148.747 20.4053C149.899 18.9333 151.371 17.7387 153.163 16.8214C154.955 15.904 156.746 15.4347 158.538 15.4134L158.603 16.4694L157.258 16.7574C155.317 17.184 153.6 18.0374 152.107 19.3174C150.635 20.5974 149.898 21.8774 149.898 23.1574C149.898 24.416 150.41 25.0454 151.434 25.0454C152.394 25.0454 153.578 24.3734 154.986 23.0294C156.394 21.6854 157.568 20.1067 158.507 18.2934L159.85 19.0933C158.528 21.76 157.867 23.456 157.867 24.1814C157.867 24.48 157.962 24.736 158.154 24.9494C158.368 25.1414 158.57 25.2374 158.762 25.2374C158.976 25.2374 159.114 25.2267 159.178 25.2054C159.242 25.184 159.306 25.1627 159.37 25.1414C159.434 25.0987 159.509 25.0453 159.594 24.9813C159.701 24.9173 159.786 24.8534 159.85 24.7894C159.936 24.7254 160.064 24.6294 160.234 24.5014C160.405 24.3734 160.544 24.2667 160.65 24.1814Z" stroke="#5A444D" stroke-width="4" mask="url(#path-1-outside-1_187_118)"/>
<path d="M169.411 23.8294L170.115 24.6294C169.581 25.4614 168.931 26.112 168.163 26.5814C167.416 27.0507 166.659 27.2854 165.891 27.2854C165.123 27.2854 164.514 27.072 164.066 26.6454C163.618 26.1974 163.395 25.5894 163.395 24.8214C163.395 23.0293 164.067 20.5547 165.411 17.3974C164.323 17.568 163.234 17.824 162.146 18.1654L161.923 16.9174L161.891 16.8854C162.957 16.4374 164.355 16.0747 166.083 15.7974C166.253 15.4774 166.637 14.6987 167.234 13.4614C168.429 11.008 169.282 9.41868 169.794 8.69335L171.171 9.23735C170.957 9.70668 170.584 10.496 170.051 11.6054C169.517 12.6934 168.92 13.9307 168.258 15.3174C169.218 15.2534 169.976 15.2214 170.531 15.2214C171.085 15.2214 171.512 15.3067 171.811 15.4774V16.8534C171.512 16.7894 171.075 16.7574 170.499 16.7574C169.944 16.7574 168.941 16.8534 167.49 17.0454C166.232 19.8614 165.602 21.9094 165.602 23.1894C165.602 23.68 165.752 24.0854 166.051 24.4054C166.371 24.7254 166.787 24.8854 167.299 24.8854C167.832 24.8854 168.536 24.5334 169.411 23.8294Z" stroke="#5A444D" stroke-width="4" mask="url(#path-1-outside-1_187_118)"/>
<path d="M179.013 13.8454C177.818 13.8454 177.221 13.3654 177.221 12.4054C177.221 11.872 177.37 11.424 177.669 11.0613C177.968 10.6987 178.352 10.5174 178.821 10.5174C179.29 10.5174 179.674 10.656 179.973 10.9333C180.272 11.2107 180.421 11.5733 180.421 12.0213C180.421 12.4694 180.293 12.8854 180.037 13.2694C179.781 13.6534 179.44 13.8454 179.013 13.8454ZM178.597 23.2854L179.237 23.8294C178.725 24.8107 178.042 25.6534 177.189 26.3574C176.357 27.04 175.6 27.3814 174.917 27.3814C173.722 27.3814 173.125 26.5494 173.125 24.8854C173.125 22.816 173.978 20.1174 175.685 16.7894C176.069 16.064 176.293 15.6374 176.357 15.5094L177.733 16.3414C177.285 17.152 176.73 18.4427 176.069 20.2134C175.429 21.984 175.109 23.1254 175.109 23.6374C175.109 24.128 175.216 24.48 175.429 24.6934C175.642 24.9067 175.898 25.0134 176.197 25.0134C176.773 25.0134 177.573 24.4374 178.597 23.2854Z" stroke="#5A444D" stroke-width="4" mask="url(#path-1-outside-1_187_118)"/>
<path d="M191.512 15.9574L192.6 16.8214C189.762 20.5547 187.842 23.6694 186.84 26.1654C186.498 26.9974 186.008 27.4134 185.368 27.4134C184.962 27.4134 184.599 27.2 184.279 26.7734C183.981 26.3467 183.778 25.9627 183.671 25.6214C183.586 25.2587 183.437 24.512 183.223 23.3814C183.01 22.2507 182.776 21.0774 182.52 19.8614C182.264 18.624 182.05 17.7067 181.88 17.1094C181.73 16.4907 181.623 16.0854 181.559 15.8934C181.517 15.7014 181.431 15.5414 181.303 15.4134C181.175 15.264 181.101 15.168 181.079 15.1254L183.16 15.3174C183.778 16.832 184.269 18.4747 184.632 20.2453C184.717 20.608 184.866 21.344 185.079 22.4534C185.293 23.5414 185.464 24.3947 185.592 25.0134C186.765 22.752 187.789 20.9173 188.663 19.5093C189.559 18.08 190.509 16.896 191.512 15.9574Z" stroke="#5A444D" stroke-width="4" mask="url(#path-1-outside-1_187_118)"/>
<path d="M202.164 23.6374L202.9 24.2134C202.238 25.1307 201.332 25.8987 200.18 26.5174C199.028 27.1147 197.908 27.4134 196.82 27.4134C195.732 27.4134 194.857 27.0934 194.196 26.4534C193.534 25.8134 193.204 24.9707 193.204 23.9254C193.204 21.9627 194.238 20.032 196.308 18.1334C198.398 16.2347 200.51 15.2854 202.644 15.2854C204.052 15.2854 204.756 15.84 204.756 16.9494C204.756 18.1014 204.009 19.264 202.516 20.4374C201.044 21.6107 198.964 22.6774 196.276 23.6374C196.468 24.128 196.766 24.512 197.172 24.7894C197.577 25.0667 197.993 25.2054 198.42 25.2054C199.337 25.2054 200.585 24.6827 202.164 23.6374ZM196.116 22.6774C197.844 22.08 199.326 21.3334 200.564 20.4374C201.801 19.5414 202.42 18.72 202.42 17.9734C202.42 17.696 202.313 17.4507 202.1 17.2374C201.886 17.024 201.641 16.9174 201.364 16.9174C200.361 16.9174 199.273 17.5467 198.1 18.8054C196.948 20.0427 196.286 21.3334 196.116 22.6774Z" stroke="#5A444D" stroke-width="4" mask="url(#path-1-outside-1_187_118)"/>
<path d="M51.919 46.4534L51.819 47.6534C51.5123 47.6267 51.179 47.6133 50.819 47.6133C50.4723 47.6133 50.179 47.62 49.939 47.6334C49.7523 49.1 49.6323 50.6934 49.579 52.4134H48.179C48.099 52.0667 48.059 51.6067 48.059 51.0334C48.059 50.46 48.0723 49.9667 48.099 49.5534C48.139 49.1267 48.1857 48.7067 48.239 48.2934C48.2923 47.88 48.319 47.64 48.319 47.5733C48.1323 47.56 47.6923 47.5534 46.999 47.5534C46.3057 47.5534 45.8257 47.5667 45.559 47.5933C44.0123 49.6733 42.5857 51.2534 41.279 52.3334C39.9723 53.4 38.6657 53.9333 37.359 53.9333C36.719 53.9333 36.1857 53.74 35.759 53.3534C35.319 52.9667 35.099 52.4534 35.099 51.8134C35.099 50.6 36.019 49.4934 37.859 48.4934C39.7123 47.4934 42.1057 46.82 45.039 46.4734C45.3857 45.94 46.0323 45.12 46.979 44.0134C47.9257 42.8934 48.859 41.92 49.779 41.0933C50.179 40.16 50.4923 39.5134 50.719 39.1534C50.959 38.78 51.1923 38.5933 51.419 38.5933C51.6457 38.5933 51.8323 38.68 51.979 38.8534C52.1257 39.0267 52.199 39.2533 52.199 39.5333C52.199 39.8 52.0457 40.2 51.739 40.7333C51.4457 41.2533 51.139 42.0667 50.819 43.1734C50.499 44.2667 50.279 45.3 50.159 46.2733C50.8523 46.2733 51.439 46.3334 51.919 46.4534ZM41.719 50.6334C42.8257 49.58 43.659 48.58 44.219 47.6334C41.979 47.7667 40.2457 48.1867 39.019 48.8934C37.8057 49.6 37.199 50.3534 37.199 51.1534C37.199 51.5 37.3123 51.7734 37.539 51.9734C37.779 52.1734 38.0923 52.2733 38.479 52.2733C39.519 52.2733 40.599 51.7267 41.719 50.6334ZM48.559 46.2733C48.6523 45.82 48.7723 45.2533 48.919 44.5733C49.079 43.88 49.1723 43.4734 49.199 43.3534C48.559 43.9667 48.1123 44.42 47.859 44.7134C47.6057 44.9934 47.159 45.54 46.519 46.3534C46.7457 46.34 47.019 46.3334 47.339 46.3334C47.6723 46.32 47.9457 46.3067 48.159 46.2934C48.3723 46.28 48.5056 46.2733 48.559 46.2733Z" stroke="#5A444D" stroke-width="4" mask="url(#path-1-outside-1_187_118)"/>
<path d="M68.2091 45.3334C68.5425 45.3334 68.8158 45.4467 69.0291 45.6734C69.2425 45.9 69.3491 46.1934 69.3491 46.5534C69.3491 47.2734 68.9358 48.0334 68.1091 48.8334L67.6291 48.4534C67.8158 48.04 67.9091 47.74 67.9091 47.5534C67.9091 47.1934 67.7091 47.0134 67.3091 47.0134C66.9091 47.0134 66.5291 47.2667 66.1691 47.7733C65.8091 48.28 65.3825 49.0667 64.8891 50.1334C64.4091 51.1867 64.0425 51.9334 63.7891 52.3734L62.6491 51.8734C63.3825 50.2067 63.8025 49.2267 63.9091 48.9333C64.2691 47.8933 64.4491 46.5734 64.4491 44.9734L65.5691 44.6734C65.5291 45.54 65.4691 46.2134 65.3891 46.6934C65.3091 47.16 65.1158 47.9267 64.8091 48.9934C66.1558 46.5534 67.2891 45.3334 68.2091 45.3334Z" stroke="#5A444D" stroke-width="4" mask="url(#path-1-outside-1_187_118)"/>
<path d="M77.7385 50.2134L78.1585 50.5534C77.9318 51.1134 77.5718 51.5867 77.0785 51.9734C76.5985 52.36 76.1585 52.5534 75.7585 52.5534C75.3718 52.5534 75.0652 52.42 74.8385 52.1534C74.6118 51.8734 74.4985 51.5134 74.4985 51.0734C74.4985 50.6334 74.5718 50.0667 74.7185 49.3734C74.0918 50.36 73.4185 51.1334 72.6985 51.6934C71.9785 52.2534 71.3719 52.5334 70.8785 52.5334C70.1319 52.5334 69.7585 52 69.7585 50.9333C69.7585 50.0267 70.0652 48.8667 70.6785 47.4534C71.2918 46.04 71.7385 45.22 72.0185 44.9934L72.9785 45.4133C72.4318 46.2933 72.0185 47.16 71.7385 48.0134C71.4585 48.8667 71.3185 49.44 71.3185 49.7334C71.3185 50.0134 71.4052 50.24 71.5785 50.4133C71.7652 50.5867 71.9785 50.6734 72.2185 50.6734C72.7518 50.6734 73.4119 50.1867 74.1985 49.2134C74.9985 48.2267 75.8119 46.76 76.6385 44.8134L77.6585 45.2733C77.6318 45.38 77.3252 46.1533 76.7385 47.5933C76.1652 49.0333 75.8785 49.9 75.8785 50.1934C75.8785 50.4734 75.9385 50.6867 76.0585 50.8334C76.1919 50.98 76.3185 51.0534 76.4385 51.0534C76.5718 51.0534 76.6719 51.0467 76.7385 51.0334C76.8052 51.02 76.8718 50.9934 76.9385 50.9534C77.0052 50.9134 77.0585 50.88 77.0985 50.8534C77.1519 50.8267 77.2119 50.78 77.2785 50.7134L77.4385 50.5733C77.4652 50.5333 77.5118 50.4734 77.5785 50.3934C77.6585 50.3 77.7119 50.24 77.7385 50.2134Z" stroke="#5A444D" stroke-width="4" mask="url(#path-1-outside-1_187_118)"/>
<path d="M85.0671 44.5933L84.8871 45.3734C84.6604 45.3467 84.3671 45.3334 84.0071 45.3334C82.6738 45.3334 82.0071 45.7734 82.0071 46.6534C82.0071 46.84 82.2738 47.3867 82.8071 48.2934C83.3538 49.2 83.6271 49.8067 83.6271 50.1133C83.6271 50.8333 83.3804 51.4 82.8871 51.8134C82.4071 52.2134 81.7604 52.4134 80.9471 52.4134C79.8271 52.4134 78.9271 51.7934 78.2471 50.5534L79.0071 50.0134C79.1938 50.16 79.3938 50.34 79.6071 50.5534C79.8204 50.7534 79.9804 50.8934 80.0871 50.9734C80.3404 51.2 80.6204 51.3134 80.9271 51.3134C81.2338 51.3134 81.5004 51.2067 81.7271 50.9934C81.9538 50.7667 82.0671 50.4934 82.0671 50.1734C82.0671 49.84 81.7738 49.2267 81.1871 48.3334C80.6138 47.44 80.3271 46.8133 80.3271 46.4534C80.3271 45.8 80.6004 45.3 81.1471 44.9534C81.7071 44.6067 82.4338 44.4333 83.3271 44.4333C84.2338 44.4333 84.8138 44.4867 85.0671 44.5933Z" stroke="#5A444D" stroke-width="4" mask="url(#path-1-outside-1_187_118)"/>
<path d="M89.8282 50.1734L90.2682 50.6734C89.9349 51.1934 89.5282 51.6 89.0482 51.8934C88.5815 52.1867 88.1082 52.3334 87.6282 52.3334C87.1482 52.3334 86.7682 52.2 86.4882 51.9333C86.2082 51.6533 86.0682 51.2734 86.0682 50.7934C86.0682 49.6734 86.4882 48.1267 87.3282 46.1534C86.6482 46.26 85.9682 46.42 85.2882 46.6334L85.1482 45.8534L85.1282 45.8334C85.7949 45.5534 86.6682 45.3267 87.7482 45.1534C87.8549 44.9534 88.0949 44.4667 88.4682 43.6934C89.2149 42.16 89.7482 41.1667 90.0682 40.7133L90.9282 41.0534C90.7949 41.3467 90.5615 41.84 90.2282 42.5334C89.8949 43.2134 89.5215 43.9867 89.1082 44.8534C89.7082 44.8134 90.1815 44.7934 90.5282 44.7934C90.8749 44.7934 91.1415 44.8467 91.3282 44.9534V45.8134C91.1415 45.7734 90.8682 45.7533 90.5082 45.7533C90.1615 45.7533 89.5349 45.8133 88.6282 45.9333C87.8415 47.6933 87.4482 48.9733 87.4482 49.7733C87.4482 50.08 87.5415 50.3334 87.7282 50.5334C87.9282 50.7334 88.1882 50.8334 88.5082 50.8334C88.8415 50.8334 89.2815 50.6134 89.8282 50.1734Z" stroke="#5A444D" stroke-width="4" mask="url(#path-1-outside-1_187_118)"/>
<path d="M104.479 50.4934L104.899 50.8334C104.446 51.54 104.052 52.0534 103.719 52.3734C103.399 52.68 103.039 52.8334 102.639 52.8334C102.239 52.8334 101.912 52.6734 101.659 52.3534C101.406 52.0334 101.279 51.6334 101.279 51.1534C101.279 50.22 101.892 48.2134 103.119 45.1334C104.346 42.04 105.606 39.32 106.899 36.9734L107.779 37.4534C106.472 39.9867 105.292 42.5067 104.239 45.0134C103.186 47.5067 102.659 49.3 102.659 50.3934C102.659 51.02 102.892 51.3334 103.359 51.3334C103.732 51.3334 104.106 51.0534 104.479 50.4934Z" stroke="#5A444D" stroke-width="4" mask="url(#path-1-outside-1_187_118)"/>
<path d="M112.489 46.4734C112.835 47.0467 113.009 47.68 113.009 48.3734C113.009 49.4534 112.635 50.42 111.889 51.2733C111.142 52.1133 110.262 52.5334 109.249 52.5334C108.475 52.5334 107.869 52.3134 107.429 51.8734C107.002 51.42 106.789 50.8 106.789 50.0134C106.789 48.7467 107.282 47.6134 108.269 46.6133C109.255 45.6 110.362 45.0933 111.589 45.0933C111.815 45.0933 111.975 45.1 112.069 45.1133L112.129 45.7733C111.062 45.7733 110.175 46.08 109.469 46.6934C108.762 47.3067 108.409 48.0934 108.409 49.0534C108.409 49.6267 108.549 50.0934 108.829 50.4534C109.109 50.8 109.515 50.9734 110.049 50.9734C110.595 50.9734 111.029 50.7333 111.349 50.2533C111.669 49.7733 111.829 49.2134 111.829 48.5734C111.829 47.92 111.702 47.3267 111.449 46.7934L112.489 46.4734Z" stroke="#5A444D" stroke-width="4" mask="url(#path-1-outside-1_187_118)"/>
<path d="M122.03 51.6934L122.05 52.1734C121.917 52.2534 121.31 52.4934 120.23 52.8934C119.803 55.44 119.177 57.28 118.35 58.4134C117.523 59.5467 116.51 60.1133 115.31 60.1133C114.75 60.1133 114.303 59.9334 113.97 59.5734C113.637 59.2134 113.47 58.7467 113.47 58.1734C113.47 57.0267 113.997 55.9534 115.05 54.9534C116.103 53.9667 117.51 53.1867 119.27 52.6133C119.47 51.72 119.83 50.46 120.35 48.8334C119.457 50.1934 118.643 51.1133 117.91 51.5933C117.19 52.0733 116.537 52.3134 115.95 52.3134C115.363 52.3134 114.917 52.1534 114.61 51.8334C114.317 51.5134 114.17 51.0867 114.17 50.5534C114.17 49.6734 114.537 48.78 115.27 47.8734C116.003 46.9534 116.923 46.2067 118.03 45.6334C119.15 45.0467 120.23 44.7533 121.27 44.7533L121.43 45.4534C119.95 45.6133 118.677 46.1334 117.61 47.0134C116.557 47.8934 116.03 48.74 116.03 49.5534C116.03 49.9 116.137 50.1867 116.35 50.4133C116.563 50.64 116.823 50.7533 117.13 50.7533C117.583 50.7533 118.27 50.2734 119.19 49.3134C120.11 48.3534 120.757 47.5334 121.13 46.8534L121.87 47.2733C121.137 49.2333 120.63 50.8867 120.35 52.2334L122.03 51.6934ZM119.15 53.2134C117.99 53.7467 117.03 54.3867 116.27 55.1334C115.51 55.88 115.13 56.56 115.13 57.1734C115.13 57.4934 115.223 57.7534 115.41 57.9534C115.597 58.1534 115.83 58.2534 116.11 58.2534C116.67 58.2534 117.223 57.86 117.77 57.0734C118.317 56.2867 118.777 55 119.15 53.2134Z" stroke="#5A444D" stroke-width="4" mask="url(#path-1-outside-1_187_118)"/>
<path d="M126.474 43.9333C125.728 43.9333 125.354 43.6334 125.354 43.0334C125.354 42.7 125.448 42.42 125.634 42.1934C125.821 41.9667 126.061 41.8534 126.354 41.8534C126.648 41.8534 126.888 41.94 127.074 42.1133C127.261 42.2867 127.354 42.5134 127.354 42.7934C127.354 43.0734 127.274 43.3333 127.114 43.5733C126.954 43.8133 126.741 43.9333 126.474 43.9333ZM126.214 49.8334L126.614 50.1734C126.294 50.7867 125.868 51.3133 125.334 51.7533C124.814 52.18 124.341 52.3934 123.914 52.3934C123.168 52.3934 122.794 51.8734 122.794 50.8334C122.794 49.54 123.328 47.8533 124.394 45.7733C124.634 45.32 124.774 45.0534 124.814 44.9734L125.674 45.4934C125.394 46 125.048 46.8067 124.634 47.9133C124.234 49.02 124.034 49.7334 124.034 50.0534C124.034 50.36 124.101 50.58 124.234 50.7134C124.368 50.8467 124.528 50.9133 124.714 50.9133C125.074 50.9133 125.574 50.5534 126.214 49.8334Z" stroke="#5A444D" stroke-width="4" mask="url(#path-1-outside-1_187_118)"/>
<path d="M133.166 49.5734L133.646 49.9734C133.326 50.7067 132.813 51.2934 132.106 51.7334C131.399 52.1734 130.713 52.3934 130.046 52.3934C129.393 52.3934 128.846 52.1867 128.406 51.7733C127.979 51.36 127.766 50.7934 127.766 50.0734C127.766 49.3534 128.079 48.5734 128.706 47.7334C129.333 46.8934 130.139 46.2 131.126 45.6534C132.126 45.1067 133.106 44.8334 134.066 44.8334C134.199 44.8334 134.399 44.8467 134.666 44.8734L134.606 45.6534C133.139 45.72 131.919 46.1667 130.946 46.9934C129.986 47.82 129.506 48.7 129.506 49.6334C129.506 50.02 129.626 50.3333 129.866 50.5733C130.106 50.8133 130.419 50.9333 130.806 50.9333C131.419 50.9333 132.206 50.48 133.166 49.5734Z" stroke="#5A444D" stroke-width="4" mask="url(#path-1-outside-1_187_118)"/>
<path d="M150.08 49.5734L150.56 49.9734C150.24 50.7067 149.727 51.2934 149.02 51.7334C148.313 52.1734 147.627 52.3934 146.96 52.3934C146.307 52.3934 145.76 52.1867 145.32 51.7733C144.893 51.36 144.68 50.7934 144.68 50.0734C144.68 49.3534 144.993 48.5734 145.62 47.7334C146.247 46.8934 147.053 46.2 148.04 45.6534C149.04 45.1067 150.02 44.8334 150.98 44.8334C151.113 44.8334 151.313 44.8467 151.58 44.8734L151.52 45.6534C150.053 45.72 148.833 46.1667 147.86 46.9934C146.9 47.82 146.42 48.7 146.42 49.6334C146.42 50.02 146.54 50.3333 146.78 50.5733C147.02 50.8133 147.333 50.9333 147.72 50.9333C148.333 50.9333 149.12 50.48 150.08 49.5734Z" stroke="#5A444D" stroke-width="4" mask="url(#path-1-outside-1_187_118)"/>
<path d="M157.665 46.4734C158.011 47.0467 158.185 47.68 158.185 48.3734C158.185 49.4534 157.811 50.42 157.065 51.2733C156.318 52.1133 155.438 52.5334 154.425 52.5334C153.651 52.5334 153.045 52.3134 152.605 51.8734C152.178 51.42 151.965 50.8 151.965 50.0134C151.965 48.7467 152.458 47.6134 153.445 46.6133C154.431 45.6 155.538 45.0933 156.765 45.0933C156.991 45.0933 157.151 45.1 157.245 45.1133L157.305 45.7733C156.238 45.7733 155.351 46.08 154.645 46.6934C153.938 47.3067 153.585 48.0934 153.585 49.0534C153.585 49.6267 153.725 50.0934 154.005 50.4534C154.285 50.8 154.691 50.9734 155.225 50.9734C155.771 50.9734 156.205 50.7333 156.525 50.2533C156.845 49.7733 157.005 49.2134 157.005 48.5734C157.005 47.92 156.878 47.3267 156.625 46.7934L157.665 46.4734Z" stroke="#5A444D" stroke-width="4" mask="url(#path-1-outside-1_187_118)"/>
<path d="M164.186 45.3334C164.519 45.3334 164.792 45.4467 165.006 45.6734C165.219 45.9 165.326 46.1934 165.326 46.5534C165.326 47.2734 164.912 48.0334 164.086 48.8334L163.606 48.4534C163.792 48.04 163.886 47.74 163.886 47.5534C163.886 47.1934 163.686 47.0134 163.286 47.0134C162.886 47.0134 162.506 47.2667 162.146 47.7733C161.786 48.28 161.359 49.0667 160.866 50.1334C160.386 51.1867 160.019 51.9334 159.766 52.3734L158.626 51.8734C159.359 50.2067 159.779 49.2267 159.886 48.9333C160.246 47.8933 160.426 46.5734 160.426 44.9734L161.546 44.6734C161.506 45.54 161.446 46.2134 161.366 46.6934C161.286 47.16 161.092 47.9267 160.786 48.9934C162.132 46.5534 163.266 45.3334 164.186 45.3334Z" stroke="#5A444D" stroke-width="4" mask="url(#path-1-outside-1_187_118)"/>
<path d="M171.295 50.0534L171.755 50.4133C171.342 50.9867 170.775 51.4667 170.055 51.8534C169.335 52.2267 168.635 52.4134 167.955 52.4134C167.275 52.4134 166.728 52.2134 166.315 51.8134C165.902 51.4134 165.695 50.8867 165.695 50.2334C165.695 49.0067 166.342 47.8 167.635 46.6133C168.942 45.4267 170.262 44.8334 171.595 44.8334C172.475 44.8334 172.915 45.18 172.915 45.8734C172.915 46.5934 172.448 47.32 171.515 48.0534C170.595 48.7867 169.295 49.4534 167.615 50.0534C167.735 50.36 167.922 50.6 168.175 50.7733C168.428 50.9467 168.688 51.0334 168.955 51.0334C169.528 51.0334 170.308 50.7067 171.295 50.0534ZM167.515 49.4534C168.595 49.08 169.522 48.6134 170.295 48.0534C171.068 47.4934 171.455 46.98 171.455 46.5134C171.455 46.34 171.388 46.1867 171.255 46.0534C171.122 45.92 170.968 45.8534 170.795 45.8534C170.168 45.8534 169.488 46.2467 168.755 47.0334C168.035 47.8067 167.622 48.6133 167.515 49.4534Z" stroke="#5A444D" stroke-width="4" mask="url(#path-1-outside-1_187_118)"/>
</svg>
